<?xml version="1.0" encoding="UTF-8"?>
<svg id="Capa_1" data-name="Capa 1" xmlns="http://www.w3.org/2000/svg" viewBox="0 0 92.25 92.11">
  <defs>
    <style>
      .cls-1 {
        fill: #e2e2e2;
      }

      .cls-2 {
        stroke-width: .55px;
      }

      .cls-2, .cls-3 {
        fill: none;
        stroke: #e2e2e2;
        stroke-miterlimit: 10;
      }

      .cls-3 {
        stroke-width: .27px;
      }
    </style>
  </defs>
  <g>
    <path class="cls-1" d="M56.39,33.36c-1.27,0-2.29,1.03-2.29,2.29s1.03,2.29,2.29,2.29,2.29-1.03,2.29-2.29-1.03-2.29-2.29-2.29Z"/>
    <path class="cls-1" d="M46.19,36.3c-5.31,0-9.64,4.32-9.64,9.64s4.32,9.64,9.64,9.64,9.64-4.32,9.64-9.64-4.32-9.64-9.64-9.64ZM46.19,52.11c-3.4,0-6.17-2.77-6.17-6.17s2.77-6.17,6.17-6.17,6.17,2.77,6.17,6.17-2.77,6.17-6.17,6.17Z"/>
    <path class="cls-1" d="M53.84,65.51h-15.63c-6.48,0-11.76-5.27-11.76-11.76v-15.63c0-6.48,5.27-11.76,11.76-11.76h15.63c6.48,0,11.76,5.27,11.76,11.76v15.63c0,6.48-5.27,11.76-11.76,11.76ZM38.21,30.05c-4.45,0-8.07,3.62-8.07,8.07v15.63c0,4.45,3.62,8.07,8.07,8.07h15.63c4.45,0,8.07-3.62,8.07-8.07v-15.63c0-4.45-3.62-8.07-8.07-8.07h-15.63Z"/>
  </g>
  <g>
    <circle class="cls-2" cx="46.03" cy="46.06" r="39.45"/>
    <circle class="cls-3" cx="46.03" cy="46.06" r="45.84"/>
  </g>
</svg>