{
	"asset":{
		"generator":"Khronos glTF Blender I/O v3.6.27",
		"version":"2.0"
	},
	"extensionsUsed":[
		"KHR_materials_clearcoat",
		"KHR_materials_specular",
		"KHR_materials_ior"
	],
	"scene":0,
	"scenes":[
		{
			"name":"Scene",
			"nodes":[
				0,
				1,
				2,
				3,
				4,
				5,
				6,
				7,
				8,
				9,
				10
			]
		}
	],
	"nodes":[
		{
			"mesh":0,
			"name":"Cube",
			"scale":[
				1,
				0.08198481798171997,
				1.1455577611923218
			],
			"translation":[
				0,
				0,
				-0.9427828788757324
			]
		},
		{
			"mesh":1,
			"name":"Cylinder",
			"scale":[
				0.9336181879043579,
				0.837871789932251,
				0.41144752502441406
			],
			"translation":[
				0.01181199960410595,
				0.08069014549255371,
				0.405313104391098
			]
		},
		{
			"mesh":2,
			"name":"Cylinder.002",
			"scale":[
				1.420181155204773,
				1.6183021068572998,
				0.565956711769104
			],
			"translation":[
				7.825088687241077e-05,
				0.05136212334036827,
				0.9839997291564941
			]
		},
		{
			"mesh":3,
			"name":"Cylinder.001",
			"scale":[
				1.450576901435852,
				1.3131378889083862,
				0.565956711769104
			],
			"translation":[
				-0.0016176617937162519,
				0.13211096823215485,
				0.9714650511741638
			]
		},
		{
			"mesh":4,
			"name":"Torus",
			"rotation":[
				0,
				0,
				-1,
				7.549790836947068e-08
			],
			"scale":[
				10.261201858520508,
				6.792876720428467,
				10.261201858520508
			],
			"translation":[
				-0.0021008166950196028,
				-0.0011073603527620435,
				-2.2414398193359375
			]
		},
		{
			"mesh":5,
			"name":"Cone",
			"rotation":[
				-0.9961602687835693,
				0.08754947036504745,
				0,
				1.5045785890980645e-15
			],
			"scale":[
				-7.999892711639404,
				-42.91969299316406,
				-24.597110748291016
			],
			"translation":[
				-0.02407500520348549,
				0.04306033253669739,
				-2.358323574066162
			]
		},
		{
			"mesh":6,
			"name":"Cube.001",
			"scale":[
				1.026064157485962,
				0.08198481798171997,
				1.1455577611923218
			],
			"translation":[
				1.3137016296386719,
				0.04136389121413231,
				-0.9378451108932495
			]
		},
		{
			"mesh":7,
			"name":"Cylinder.003",
			"rotation":[
				0.7053753733634949,
				-0.04945250600576401,
				0.04945250600576401,
				0.7053754329681396
			],
			"translation":[
				1.284111738204956,
				0.10457358509302139,
				-0.9651526808738708
			]
		},
		{
			"mesh":8,
			"name":"Cylinder.004",
			"rotation":[
				0.7053753733634949,
				-0.04945250600576401,
				0.04945250600576401,
				0.7053754329681396
			],
			"translation":[
				1.2493395805358887,
				0.10457358509302139,
				-0.7183821201324463
			]
		},
		{
			"mesh":9,
			"name":"Cylinder.005",
			"rotation":[
				0.7053753733634949,
				-0.04945250600576401,
				0.04945250600576401,
				0.7053754329681396
			],
			"translation":[
				1.214219331741333,
				0.10457358509302139,
				-0.46914130449295044
			]
		},
		{
			"mesh":10,
			"name":"Cylinder.006",
			"rotation":[
				0.7053753733634949,
				-0.04945250600576401,
				0.04945250600576401,
				0.7053754329681396
			],
			"translation":[
				1.318863034248352,
				0.10457359254360199,
				-1.211775779724121
			]
		}
	],
	"materials":[
		{
			"doubleSided":true,
			"extensions":{
				"KHR_materials_clearcoat":{
					"clearcoatFactor":0.05454545468091965,
					"clearcoatRoughnessFactor":0.029999999329447746
				},
				"KHR_materials_specular":{
					"specularColorFactor":[
						1.6599503018401929,
						1.6599503018401929,
						1.6599503018401929
					]
				},
				"KHR_materials_ior":{
					"ior":1.4500000476837158
				}
			},
			"name":"Material.004",
			"pbrMetallicRoughness":{
				"baseColorFactor":[
					0.5304218530654907,
					0.5304218530654907,
					0.5304218530654907,
					1
				],
				"roughnessFactor":0.30000001192092896
			}
		},
		{
			"doubleSided":true,
			"extensions":{
				"KHR_materials_specular":{
					"specularColorFactor":[
						1.2611310229960164,
						1.2611310229960164,
						1.2611310229960164
					]
				},
				"KHR_materials_ior":{
					"ior":1.4500000476837158
				}
			},
			"name":"Material.001",
			"pbrMetallicRoughness":{
				"baseColorFactor":[
					0.800000011920929,
					0.800000011920929,
					0.800000011920929,
					1
				],
				"metallicFactor":0.9772727489471436,
				"roughnessFactor":0.30909091234207153
			}
		},
		{
			"doubleSided":true,
			"extensions":{
				"KHR_materials_clearcoat":{
					"clearcoatFactor":0.05454545468091965,
					"clearcoatRoughnessFactor":0.029999999329447746
				},
				"KHR_materials_specular":{
					"specularColorFactor":[
						1.6599503018401929,
						1.6599503018401929,
						1.6599503018401929
					]
				},
				"KHR_materials_ior":{
					"ior":1.4500000476837158
				}
			},
			"name":"Material",
			"normalTexture":{
				"index":0
			},
			"pbrMetallicRoughness":{
				"baseColorTexture":{
					"index":1
				},
				"roughnessFactor":0.30000001192092896
			}
		}
	],
	"meshes":[
		{
			"name":"Cube.001",
			"primitives":[
				{
					"attributes":{
						"POSITION":0,
						"NORMAL":1,
						"TEXCOORD_0":2
					},
					"indices":3,
					"material":0
				}
			]
		},
		{
			"name":"Cylinder",
			"primitives":[
				{
					"attributes":{
						"POSITION":4,
						"NORMAL":5,
						"TEXCOORD_0":6
					},
					"indices":7,
					"material":0
				}
			]
		},
		{
			"name":"Cylinder.007",
			"primitives":[
				{
					"attributes":{
						"POSITION":8,
						"NORMAL":9,
						"TEXCOORD_0":10
					},
					"indices":11,
					"material":0
				}
			]
		},
		{
			"name":"Cylinder.001",
			"primitives":[
				{
					"attributes":{
						"POSITION":12,
						"NORMAL":13,
						"TEXCOORD_0":14
					},
					"indices":15,
					"material":1
				}
			]
		},
		{
			"name":"Torus",
			"primitives":[
				{
					"attributes":{
						"POSITION":16,
						"NORMAL":17,
						"TEXCOORD_0":18
					},
					"indices":19,
					"material":0
				}
			]
		},
		{
			"name":"Cone",
			"primitives":[
				{
					"attributes":{
						"POSITION":20,
						"NORMAL":21,
						"TEXCOORD_0":22
					},
					"indices":23,
					"material":0
				}
			]
		},
		{
			"name":"Cube.002",
			"primitives":[
				{
					"attributes":{
						"POSITION":24,
						"NORMAL":25,
						"TEXCOORD_0":26
					},
					"indices":27,
					"material":2
				}
			]
		},
		{
			"name":"Cylinder.002",
			"primitives":[
				{
					"attributes":{
						"POSITION":28,
						"NORMAL":29,
						"TEXCOORD_0":30
					},
					"indices":31,
					"material":0
				}
			]
		},
		{
			"name":"Cylinder.003",
			"primitives":[
				{
					"attributes":{
						"POSITION":32,
						"NORMAL":33,
						"TEXCOORD_0":34
					},
					"indices":31,
					"material":0
				}
			]
		},
		{
			"name":"Cylinder.004",
			"primitives":[
				{
					"attributes":{
						"POSITION":35,
						"NORMAL":36,
						"TEXCOORD_0":37
					},
					"indices":31,
					"material":0
				}
			]
		},
		{
			"name":"Cylinder.005",
			"primitives":[
				{
					"attributes":{
						"POSITION":38,
						"NORMAL":39,
						"TEXCOORD_0":40
					},
					"indices":31,
					"material":0
				}
			]
		}
	],
	"textures":[
		{
			"sampler":0,
			"source":0
		},
		{
			"sampler":0,
			"source":0
		}
	],
	"images":[
		{
			"bufferView":28,
			"mimeType":"image/jpeg",
			"name":"dije_txt_Mesa de trabajo 1"
		}
	],
	"accessors":[
		{
			"bufferView":0,
			"componentType":5126,
			"count":18713,
			"max":[
				1.4825905561447144,
				0.6711792945861816,
				1.2338831424713135
			],
			"min":[
				-1.4009275436401367,
				-0.9097710847854614,
				-1.023992657661438
			],
			"type":"VEC3"
		},
		{
			"bufferView":1,
			"componentType":5126,
			"count":18713,
			"type":"VEC3"
		},
		{
			"bufferView":2,
			"componentType":5126,
			"count":18713,
			"type":"VEC2"
		},
		{
			"bufferView":3,
			"componentType":5123,
			"count":39336,
			"type":"SCALAR"
		},
		{
			"bufferView":4,
			"componentType":5126,
			"count":10043,
			"max":[
				1.5699999332427979,
				0.11319802701473236,
				1.6637365818023682
			],
			"min":[
				-1.5761979818344116,
				-0.1117159053683281,
				-0.5974929928779602
			],
			"type":"VEC3"
		},
		{
			"bufferView":5,
			"componentType":5126,
			"count":10043,
			"type":"VEC3"
		},
		{
			"bufferView":6,
			"componentType":5126,
			"count":10043,
			"type":"VEC2"
		},
		{
			"bufferView":7,
			"componentType":5123,
			"count":57606,
			"type":"SCALAR"
		},
		{
			"bufferView":8,
			"componentType":5126,
			"count":5482,
			"max":[
				1.5380817651748657,
				0.10233555734157562,
				1.5380915403366089
			],
			"min":[
				-1.5380817651748657,
				-0.10644474625587463,
				-1.5380915403366089
			],
			"type":"VEC3"
		},
		{
			"bufferView":9,
			"componentType":5126,
			"count":5482,
			"type":"VEC3"
		},
		{
			"bufferView":10,
			"componentType":5126,
			"count":5482,
			"type":"VEC2"
		},
		{
			"bufferView":11,
			"componentType":5123,
			"count":29952,
			"type":"SCALAR"
		},
		{
			"bufferView":12,
			"componentType":5126,
			"count":184,
			"max":[
				1.4253857135772705,
				0.021509885787963867,
				1.4372879266738892
			],
			"min":[
				-1.425666332244873,
				-0.10719867050647736,
				-1.0004900693893433
			],
			"type":"VEC3"
		},
		{
			"bufferView":13,
			"componentType":5126,
			"count":184,
			"type":"VEC3"
		},
		{
			"bufferView":14,
			"componentType":5126,
			"count":184,
			"type":"VEC2"
		},
		{
			"bufferView":15,
			"componentType":5123,
			"count":276,
			"type":"SCALAR"
		},
		{
			"bufferView":16,
			"componentType":5126,
			"count":663,
			"max":[
				0.02499999850988388,
				0.004999999888241291,
				0.024914611130952835
			],
			"min":[
				-0.02499999850988388,
				-0.004999999888241291,
				-0.024914611130952835
			],
			"type":"VEC3"
		},
		{
			"bufferView":17,
			"componentType":5126,
			"count":663,
			"type":"VEC3"
		},
		{
			"bufferView":18,
			"componentType":5126,
			"count":663,
			"type":"VEC2"
		},
		{
			"bufferView":19,
			"componentType":5123,
			"count":3648,
			"type":"SCALAR"
		},
		{
			"bufferView":20,
			"componentType":5126,
			"count":26035,
			"max":[
				0.018394429236650467,
				0.004624479450285435,
				0.002604137174785137
			],
			"min":[
				-0.019963933154940605,
				-0.005542914383113384,
				-0.02283598855137825
			],
			"type":"VEC3"
		},
		{
			"bufferView":21,
			"componentType":5126,
			"count":26035,
			"type":"VEC3"
		},
		{
			"bufferView":22,
			"componentType":5126,
			"count":26035,
			"type":"VEC2"
		},
		{
			"bufferView":23,
			"componentType":5123,
			"count":139464,
			"type":"SCALAR"
		},
		{
			"bufferView":24,
			"componentType":5126,
			"count":614,
			"max":[
				0.07611100375652313,
				1.8022584915161133,
				1.1886214017868042
			],
			"min":[
				-2.564373254776001,
				0.1667885184288025,
				-0.9800459742546082
			],
			"type":"VEC3"
		},
		{
			"bufferView":25,
			"componentType":5126,
			"count":614,
			"type":"VEC3"
		},
		{
			"bufferView":26,
			"componentType":5126,
			"count":614,
			"type":"VEC2"
		},
		{
			"bufferView":27,
			"componentType":5123,
			"count":2640,
			"type":"SCALAR"
		},
		{
			"bufferView":29,
			"componentType":5126,
			"count":192,
			"max":[
				0.050000011920928955,
				0.1250000149011612,
				0.050000011920928955
			],
			"min":[
				-0.050000011920928955,
				-0.1250000149011612,
				-0.050000011920928955
			],
			"type":"VEC3"
		},
		{
			"bufferView":30,
			"componentType":5126,
			"count":192,
			"type":"VEC3"
		},
		{
			"bufferView":31,
			"componentType":5126,
			"count":192,
			"type":"VEC2"
		},
		{
			"bufferView":32,
			"componentType":5123,
			"count":372,
			"type":"SCALAR"
		},
		{
			"bufferView":33,
			"componentType":5126,
			"count":192,
			"max":[
				0.050000011920928955,
				0.1250000149011612,
				0.050000011920928955
			],
			"min":[
				-0.050000011920928955,
				-0.1250000149011612,
				-0.050000011920928955
			],
			"type":"VEC3"
		},
		{
			"bufferView":34,
			"componentType":5126,
			"count":192,
			"type":"VEC3"
		},
		{
			"bufferView":35,
			"componentType":5126,
			"count":192,
			"type":"VEC2"
		},
		{
			"bufferView":36,
			"componentType":5126,
			"count":192,
			"max":[
				0.050000011920928955,
				0.1250000149011612,
				0.050000011920928955
			],
			"min":[
				-0.050000011920928955,
				-0.1250000149011612,
				-0.050000011920928955
			],
			"type":"VEC3"
		},
		{
			"bufferView":37,
			"componentType":5126,
			"count":192,
			"type":"VEC3"
		},
		{
			"bufferView":38,
			"componentType":5126,
			"count":192,
			"type":"VEC2"
		},
		{
			"bufferView":39,
			"componentType":5126,
			"count":192,
			"max":[
				0.050000011920928955,
				0.1250000149011612,
				0.050000011920928955
			],
			"min":[
				-0.050000011920928955,
				-0.1250000149011612,
				-0.050000011920928955
			],
			"type":"VEC3"
		},
		{
			"bufferView":40,
			"componentType":5126,
			"count":192,
			"type":"VEC3"
		},
		{
			"bufferView":41,
			"componentType":5126,
			"count":192,
			"type":"VEC2"
		}
	],
	"bufferViews":[
		{
			"buffer":0,
			"byteLength":224556,
			"byteOffset":0,
			"target":34962
		},
		{
			"buffer":0,
			"byteLength":224556,
			"byteOffset":224556,
			"target":34962
		},
		{
			"buffer":0,
			"byteLength":149704,
			"byteOffset":449112,
			"target":34962
		},
		{
			"buffer":0,
			"byteLength":78672,
			"byteOffset":598816,
			"target":34963
		},
		{
			"buffer":0,
			"byteLength":120516,
			"byteOffset":677488,
			"target":34962
		},
		{
			"buffer":0,
			"byteLength":120516,
			"byteOffset":798004,
			"target":34962
		},
		{
			"buffer":0,
			"byteLength":80344,
			"byteOffset":918520,
			"target":34962
		},
		{
			"buffer":0,
			"byteLength":115212,
			"byteOffset":998864,
			"target":34963
		},
		{
			"buffer":0,
			"byteLength":65784,
			"byteOffset":1114076,
			"target":34962
		},
		{
			"buffer":0,
			"byteLength":65784,
			"byteOffset":1179860,
			"target":34962
		},
		{
			"buffer":0,
			"byteLength":43856,
			"byteOffset":1245644,
			"target":34962
		},
		{
			"buffer":0,
			"byteLength":59904,
			"byteOffset":1289500,
			"target":34963
		},
		{
			"buffer":0,
			"byteLength":2208,
			"byteOffset":1349404,
			"target":34962
		},
		{
			"buffer":0,
			"byteLength":2208,
			"byteOffset":1351612,
			"target":34962
		},
		{
			"buffer":0,
			"byteLength":1472,
			"byteOffset":1353820,
			"target":34962
		},
		{
			"buffer":0,
			"byteLength":552,
			"byteOffset":1355292,
			"target":34963
		},
		{
			"buffer":0,
			"byteLength":7956,
			"byteOffset":1355844,
			"target":34962
		},
		{
			"buffer":0,
			"byteLength":7956,
			"byteOffset":1363800,
			"target":34962
		},
		{
			"buffer":0,
			"byteLength":5304,
			"byteOffset":1371756,
			"target":34962
		},
		{
			"buffer":0,
			"byteLength":7296,
			"byteOffset":1377060,
			"target":34963
		},
		{
			"buffer":0,
			"byteLength":312420,
			"byteOffset":1384356,
			"target":34962
		},
		{
			"buffer":0,
			"byteLength":312420,
			"byteOffset":1696776,
			"target":34962
		},
		{
			"buffer":0,
			"byteLength":208280,
			"byteOffset":2009196,
			"target":34962
		},
		{
			"buffer":0,
			"byteLength":278928,
			"byteOffset":2217476,
			"target":34963
		},
		{
			"buffer":0,
			"byteLength":7368,
			"byteOffset":2496404,
			"target":34962
		},
		{
			"buffer":0,
			"byteLength":7368,
			"byteOffset":2503772,
			"target":34962
		},
		{
			"buffer":0,
			"byteLength":4912,
			"byteOffset":2511140,
			"target":34962
		},
		{
			"buffer":0,
			"byteLength":5280,
			"byteOffset":2516052,
			"target":34963
		},
		{
			"buffer":0,
			"byteLength":461757,
			"byteOffset":2521332
		},
		{
			"buffer":0,
			"byteLength":2304,
			"byteOffset":2983092,
			"target":34962
		},
		{
			"buffer":0,
			"byteLength":2304,
			"byteOffset":2985396,
			"target":34962
		},
		{
			"buffer":0,
			"byteLength":1536,
			"byteOffset":2987700,
			"target":34962
		},
		{
			"buffer":0,
			"byteLength":744,
			"byteOffset":2989236,
			"target":34963
		},
		{
			"buffer":0,
			"byteLength":2304,
			"byteOffset":2989980,
			"target":34962
		},
		{
			"buffer":0,
			"byteLength":2304,
			"byteOffset":2992284,
			"target":34962
		},
		{
			"buffer":0,
			"byteLength":1536,
			"byteOffset":2994588,
			"target":34962
		},
		{
			"buffer":0,
			"byteLength":2304,
			"byteOffset":2996124,
			"target":34962
		},
		{
			"buffer":0,
			"byteLength":2304,
			"byteOffset":2998428,
			"target":34962
		},
		{
			"buffer":0,
			"byteLength":1536,
			"byteOffset":3000732,
			"target":34962
		},
		{
			"buffer":0,
			"byteLength":2304,
			"byteOffset":3002268,
			"target":34962
		},
		{
			"buffer":0,
			"byteLength":2304,
			"byteOffset":3004572,
			"target":34962
		},
		{
			"buffer":0,
			"byteLength":1536,
			"byteOffset":3006876,
			"target":34962
		}
	],
	"samplers":[
		{
			"magFilter":9729,
			"minFilter":9987,
			"wrapS":33071,
			"wrapT":33071
		}
	],
	"buffers":[
		{
			"byteLength":3008412,
			"uri":"data:application/octet-stream;base64,"
		}
	]
}
