<?xml version="1.0" encoding="UTF-8"?>
<svg id="uuid-4bf93a55-a1fa-47b8-9b22-cfa4cf923daf" data-name="Capa 2" xmlns="http://www.w3.org/2000/svg" viewBox="0 0 1116.1 42.85">
  <g id="uuid-af101bce-7068-4c14-9a9a-155202f173eb" data-name="Capa 1">
    <g>
      <path d="M29.53,33.2c-.29,0-.54.25-.93.97-.57,1.41-1.4,2.39-2.46,2.91-1.09.53-3.12.81-6.04.81-2.73,0-4.48-.05-5.2-.14-.9-.11-1.02-.54-1.06-.67-.46-1.69-.69-5.65-.69-11.8l-.07-10.76c-.05-3.69.08-6.34.38-7.87.29-1.47.69-2.42,1.21-2.81.53-.4,1.59-.68,3.2-.82.77-.17.88-.62.88-.87,0-.28-.14-.74-1.09-.74-.03,0-.48.01-1.33.03l-1.47.04c-1.77.05-3.89.07-6.28.07h-4.4c-.41,0-.78-.01-1.1-.03-.34-.02-.61-.04-.83-.04h-.73c-.95,0-1.09.46-1.09.74,0,.23.09.79.91.88,1.37.16,1.96.43,2.22.63.24.19.57.69.79,2.03.18,1.15.28,3.22.28,6.17v16.07c0,2.53-.02,4.43-.07,5.65-.05,1.2-.12,2.32-.21,3.3-.11,1.14-.38,1.6-.59,1.78-.35.31-.7.53-1.04.68-.34.15-.94.27-1.79.36-.58.06-.92.41-.92.95,0,.17.07.74.95.74.02,0,.26,0,.7-.02l1.73-.05c1.56-.05,3.26-.09,5.1-.14,1.84-.05,3.1-.07,3.8-.07,4.09,0,8.79.09,13.96.28l1.34.07c.26,0,.62-.13.86-.77l.02-.09c0-.06.05-.23.13-.49l1.61-5.32c.22-.88.22-.93.22-.99,0-.16-.06-.67-.88-.67Z" style="fill: #fff;"/>
      <path d="M82.78,39.63c-1.36-.26-2.49-.99-3.37-2.15-.91-1.2-2.14-3.62-3.66-7.17l-9.43-22.08-2.67-6.18c-.39-.67-.8-1-1.26-1-.31,0-.62.25-1.06.88-1.8,3.82-2.97,6.26-3.49,7.26l-10.76,21.24c-1.85,3.6-3.26,6.03-4.19,7.22-.9,1.14-1.95,1.8-3.13,1.98-.83.17-.96.66-.96.94,0,.51.33.81.88.81.24,0,1.08-.05,2.57-.14,1.49-.09,2.54-.14,3.23-.14.54,0,1.63.05,3.34.14,1.7.09,2.66.14,2.95.14.6,0,.95-.33.95-.88,0-.29-.14-.8-1.04-.88-1.74-.26-2.59-.97-2.59-2.2,0-.93.37-2.17,1.09-3.71l2.99-6.38,12.44.07,2.71,6.78c.64,1.68.96,2.89.96,3.59,0,.93-.9,1.56-2.64,1.85-1.05.08-1.21.63-1.21.95,0,.55.33.88.88.88.51,0,1.62-.04,3.3-.11,1.62-.07,2.78-.1,3.34-.1,1.26,0,2.72.02,4.32.07,1.63.05,3.01.09,4.15.14,1.15.05,1.77.07,1.87.07.51,0,.81-.33.81-.88,0-.5-.44-.84-1.31-1.01ZM64.21,23.91l-9.49.13,5.19-10.76,4.3,10.63Z" style="fill: #fff;"/>
      <path d="M171.67,39.7c-1.46-.26-2.45-.87-3.03-1.84-.61-1.01-1.21-3.4-1.81-7.12l-3.49-21.38c-.42-2.54-.77-5.17-1.04-7.78,0-.31-.19-.67-1.09-.67-.47,0-.75.49-.84.66l-15.26,28.03c-7.14-11.15-12.67-20.46-16.46-27.68-.42-.84-1-1.02-1.41-1.02-.6,0-.95.33-.95.85-.23,2.69-.58,5.64-1.05,8.79l-3.01,20.34c-.6,4.14-1.14,6.65-1.6,7.47-.43.76-1.54,1.24-3.29,1.41-.58.06-.91.41-.91.95,0,.17.07.74.95.74.19,0,1.01-.04,2.5-.11,1.44-.07,2.57-.1,3.37-.1.66,0,2.07.05,4.07.14,2.1.09,3.21.14,3.4.14.55,0,.88-.3.88-.81,0-.23-.1-.79-.98-.88-2.78-.4-4.13-1.76-4.13-4.15,0-1.47.14-3.38.42-5.69l1.62-11.95c5.53,9.16,9.92,16.96,13.08,23.18.37.68.62.94.91.94.32,0,.62-.26.98-.87l12.95-23.81,2.1,15.31c.28,2.03.42,3.64.42,4.78,0,.55-.2.97-.61,1.28-.45.34-1.31.65-2.54.92-.98.15-1.18.6-1.18.95,0,.55.36.88.95.88.65,0,1.95-.04,3.86-.11,1.94-.07,3.33-.1,4.25-.1,1.05,0,2.55.02,4.46.07,1.96.05,3.17.07,3.64.07.98,0,1.09-.57,1.09-.81,0-.5-.41-.84-1.24-1.02Z" style="fill: #fff;"/>
      <path d="M276.02,21.94c-.19,0-1.18.04-3.02.11-1.82.07-3.62.1-5.37.1-.65,0-1.84-.02-3.56-.07-1.73-.05-2.73-.07-3.01-.07-1.31,0-1.51.64-1.51,1.02,0,.82.57.88.74.88h.28c1.86,0,2.98.41,3.34,1.21.4.89.6,3.12.6,6.65,0,3.27-.14,5.39-.42,6.32-1.47.55-3.31.83-5.47.83-3.89,0-7.29-1.76-10.13-5.23-2.85-3.49-4.29-8.32-4.29-14.37,0-4.94,1.06-8.83,3.15-11.58,2.07-2.72,5.18-4.1,9.25-4.1,3.15,0,6.22.63,9.1,1.86,2.85,1.22,4.86,3,6,5.33.41.64.72.92,1.04.92.17,0,.74-.07.74-.95,0-2.6.05-4.57.14-5.87,0-.35.03-.77.1-1.25.1-.67.11-.84.11-.92,0-.36-.21-.74-.81-.74-.19,0-.39.12-.7.4-.17.15-.33.23-.48.23-.77,0-2.57-.23-5.33-.69-3.91-.65-7.08-.98-9.42-.98-6.85,0-12.32,1.82-16.26,5.4-3.94,3.59-5.94,8.51-5.94,14.63,0,6.78,2.08,12.01,6.19,15.55,4.09,3.53,9.62,5.32,16.42,5.32,1.92,0,4.1-.19,6.48-.56,3.21-.51,6.02-.86,8.36-1.05.48-.04,1.06-.35,1.06-1.58l.07-11.39c0-.87.02-1.52.07-1.92.04-.34.17-.6.41-.8.27-.23.51-.37.72-.42.24-.07.72-.17,1.46-.31.31-.04.84-.24.84-1.16,0-.17-.07-.74-.95-.74Z" style="fill: #fff;"/>
      <path d="M307.31,39.49c-1.77-.3-2.84-.98-3.17-2.02-.36-1.13-.57-4.06-.61-8.71l-.07-16.64c-.05-2.95.02-5,.21-6.09.17-1.04.47-1.77.88-2.16.41-.39,1.27-.68,2.57-.86.77-.17.88-.66.88-.94,0-.24-.11-.81-1.09-.81-.51,0-2.07.05-4.62.14-2.48.09-4.12.14-4.74.14-.52,0-1.65-.05-3.27-.14-1.7-.09-2.62-.14-2.81-.14-.98,0-1.09.57-1.09.81,0,.28.11.77.91.95,1.68.22,2.71.79,3.06,1.71.38,1.01.57,3.64.57,7.82v13.56c0,4.3-.12,7.37-.35,9.15-.28,2.14-.68,2.97-.97,3.28-.42.47-1.27.88-2.52,1.24-.56.19-.85.48-.85.86,0,.19.07.81.95.81.32,0,1.53-.04,3.93-.14,2.27-.09,3.53-.14,3.76-.14.84,0,2.2.02,4.08.07,1.94.05,3.44.07,4.59.07.88,0,.95-.62.95-.81,0-.49-.39-.83-1.18-1.02Z" style="fill: #fff;"/>
      <path d="M420.19,1.05c-.79,0-3.31.09-7.49.28-5.18.23-6.65.28-6.97.28-1,0-2.26-.02-3.73-.07l-.95-.03c-.86-.03-1.33-.04-1.4-.04-.98,0-1.09.62-1.09.88,0,.28.11.77.89.95.8.14,1.36.23,1.69.28.27.04.57.18.9.43s.54.48.63.68c.07.16.19.54.32,1.45.11.76.17,1.52.17,2.26v13.31c0,8.46-.17,13.57-.52,15.17-.32,1.5-1.34,2.35-3.11,2.61-.89.09-.99.69-.99.95,0,.6.36.95.95.95.04,0,.28,0,.73-.02h.4c.7-.04,1.54-.07,2.52-.12.95-.05,1.82-.07,2.57-.07.6,0,2.26.07,5.08.21,2.8.14,5.01.21,6.59.21,7.88,0,14.03-2.05,18.29-6.1,4.26-4.05,6.42-9.3,6.42-15.61,0-5.47-1.88-10.03-5.59-13.55-3.7-3.51-9.2-5.29-16.33-5.29ZM428.75,34.25c-2.39,2.87-6.07,4.32-10.93,4.32-2.63,0-4.35-.56-5.08-1.61-.45-1.17-.68-3.83-.68-7.92l-.07-14.26c0-4.58.13-7.94.39-9.99,2.19-.34,3.92-.52,5.16-.52,4.81,0,8.53,1.59,11.04,4.74,2.53,3.16,3.81,7.41,3.81,12.62,0,5.49-1.22,9.73-3.63,12.62Z" style="fill: #fff;"/>
      <path d="M482.52,34.8c-.31,0-.61.24-.96.77-.61.88-1.34,1.48-2.16,1.81-.84.33-2.36.5-4.49.5-3.3,0-5.1-.73-5.34-2.17-.28-1.84-.42-4.1-.42-6.73l-.07-6.87,5.54.13c2.59.06,3.6.35,4,.58.52.31.87,1.24.99,2.66,0,.36.21.74.81.74.46,0,.74-.28.74-.74,0-.19-.01-.78-.04-1.79-.02-1-.04-1.75-.04-2.26,0-.55.02-1.2.07-1.94.05-.73.1-1.37.17-1.9.11-.83.11-.88.11-.91,0-.6-.38-.81-.74-.81-.26,0-.62.13-.87.8l-.21.83c-.2.69-.59,1.12-1.19,1.32-.66.22-2.06.33-4.16.33h-5.2v-7.02c0-3.6.04-6.13.12-7.53,1.45-.12,2.99-.18,4.59-.18,3.91,0,6.11.88,6.54,2.65.19.56.48.85.86.85.22,0,.74-.1.74-1.02v-2.8c0-.23.02-.7.07-1.41.05-.73.07-1.13.07-1.17,0-.24-.16-.53-.6-.53-.08,0-.17.02-.28.05-.01,0-.09.03-.42.05-.26.03-.58.06-.94.11-2.76.23-7.29.35-13.46.35h-4.65c-.76,0-1.48-.01-2.16-.04-.68-.02-1.23-.04-1.65-.04h-.63c-.92,0-1.02.57-1.02.81,0,.54.33.89.91.95,1.05.13,1.78.37,2.17.69.26.22.63.78.87,2.15.21,1.16.31,3.13.31,5.85v19.14c-.06,5.39-.56,7.08-.98,7.56-.15.2-.71.58-2.64.92-.86.09-.99.59-.99.88,0,.55.33.88.88.88.05,0,.64-.01,1.79-.04,1.14-.02,2.44-.05,3.91-.07,1.47-.02,2.62-.04,3.45-.04,2.74,0,5.51.02,8.24.07h.44c2.52.05,3.83.09,3.94.07l2.33.14c.19,0,.54-.08.73-.66.14-.51.37-1.3.7-2.37.23-.78.46-1.48.68-2.04.16-.33.24-.63.24-.91,0-.32-.19-.67-.74-.67Z" style="fill: #fff;"/>
      <path d="M566.87,1.26c-.2,0-1,.05-2.47.14-1.41.09-2.49.14-3.19.14-.41,0-1.46-.03-3.2-.1s-2.73-.11-3.02-.11c-.88,0-.95.62-.95.81,0,.44.36.76,1.09.94,1.63.35,2.69,1.12,3.23,2.33.56,1.26.85,3.49.85,6.65l-.07,15.99c-1.56-1.39-4.45-3.91-8.42-7.35-4.61-4.01-8.94-7.79-13-11.35-4.04-3.55-7.28-6.45-9.63-8.62-.49-.49-.88-.72-1.21-.72-1.05,0-1.16.62-1.16.88v8.88c0,1.61-.19,8.59-.56,20.74-.14,3.95-.41,6.4-.81,7.29-.38.84-1.42,1.53-3.09,2.06-.56.19-.85.48-.85.86,0,.17.07.74.95.74.19,0,1-.04,2.46-.11,1.41-.07,2.49-.1,3.2-.1.46,0,1.47.02,3.03.07,1.57.05,2.49.07,2.77.07.88,0,.95-.62.95-.81,0-.29-.15-.8-1.13-.88-1.53-.17-2.44-.69-2.7-1.56-.29-.96-.44-3.51-.44-7.56V13.88c11.39,9.77,21.39,18.64,29.72,26.37.56.51,1.05.98,1.49,1.42l.87.87c.13.13.33.3.58.3.17,0,.74-.07.74-.95l-.07-8.73c0-2.37.09-9.47.28-21.1.09-4.04.33-6.57.71-7.51.35-.86,1.38-1.43,3.06-1.69.83-.09.92-.64.92-.88,0-.17-.07-.74-.95-.74Z" style="fill: #fff;"/>
      <path d="M621.8,1.33c-.09,0-.38.02-1.67.14-.98.09-1.93.14-2.8.14-.6,0-1.26-.01-1.98-.04-1.44-.05-2.65-.02-3.63-.07-.47-.02-.85-.06-1.17-.1h-.49c-.98,0-1.09.62-1.09.88,0,.35.15.94,1.13,1.02,1.63.18,2.69.77,3.24,1.82.58,1.09.85,3.47.8,7.08l-.07,13.76c-.09,7.92-3.9,11.77-11.63,11.77-2,0-3.69-.32-5.04-.95-1.33-.62-2.35-1.54-3.04-2.73-.7-1.22-1.21-2.56-1.5-3.99-.3-1.44-.45-3.17-.45-5.14l-.07-12.72c-.05-3.98.2-6.52.73-7.53.5-.95,1.65-1.44,3.42-1.44.59,0,.95-.38.95-1.02,0-.27-.11-.88-1.09-.88-.19,0-.66.02-1.42.07-.74.05-1.79.09-3.14.14-1.35.05-2.88.07-4.53.07-.46,0-.99-.01-1.59-.04-.6-.02-1.16-.05-1.68-.07-.51-.02-1-.05-1.47-.07-.47-.02-.85-.04-1.08-.03l-.47-.08c-.98,0-1.09.62-1.09.88s.1.77.82.94c1.37.28,1.93.58,2.15.79.22.2.52.72.74,2.02.18,1.1.28,3.13.28,6.03v13.7c0,5.76,1.45,9.88,4.31,12.26,2.98,2.56,7.4,3.85,13.14,3.85s10.14-1.58,13.51-4.71c2.38-2.38,3.59-6.27,3.59-11.55v-13.56c0-3.9.18-6.33.54-7.22.33-.82,1.32-1.36,2.98-1.62.83-.17.96-.71.96-1.01,0-.24-.11-.81-1.09-.81Z" style="fill: #fff;"/>
      <path d="M661.64,34.8c-.31,0-.61.24-.96.77-.61.88-1.34,1.48-2.16,1.81-.84.33-2.36.5-4.49.5-3.3,0-5.1-.73-5.34-2.17-.28-1.84-.42-4.1-.42-6.73l-.07-6.87,5.54.13c2.59.06,3.6.35,4,.58.52.31.87,1.24.99,2.66,0,.36.21.74.81.74.46,0,.74-.28.74-.74,0-.19-.01-.78-.04-1.79-.02-1-.04-1.75-.04-2.26,0-.55.02-1.2.07-1.94.05-.73.1-1.37.17-1.9.11-.83.11-.88.11-.91,0-.6-.38-.81-.74-.81-.26,0-.62.13-.87.8l-.21.83c-.2.69-.59,1.12-1.19,1.32-.66.22-2.06.33-4.16.33h-5.2v-7.02c0-3.6.04-6.13.12-7.53,1.45-.12,2.99-.18,4.59-.18,3.91,0,6.11.88,6.54,2.65.19.56.48.85.86.85.22,0,.74-.1.74-1.02v-2.8c0-.23.02-.7.07-1.41.05-.73.07-1.13.07-1.17,0-.24-.16-.53-.6-.53-.08,0-.17.02-.28.05-.01,0-.09.03-.42.05-.26.03-.58.06-.94.11-2.76.23-7.29.35-13.46.35h-4.65c-.76,0-1.48-.01-2.16-.04-.68-.02-1.23-.04-1.65-.04h-.63c-.92,0-1.02.57-1.02.81,0,.54.33.89.91.95,1.05.13,1.78.37,2.17.69.26.22.63.78.87,2.15.21,1.16.31,3.13.31,5.85v19.14c-.06,5.39-.56,7.08-.98,7.56-.15.2-.71.58-2.64.92-.86.09-.99.59-.99.88,0,.55.33.88.88.88.05,0,.64-.01,1.79-.04,1.14-.02,2.44-.05,3.91-.07,1.47-.02,2.62-.04,3.45-.04,2.74,0,5.51.02,8.24.07h.44c2.52.05,3.82.09,3.94.07l2.33.14c.19,0,.54-.08.73-.66.14-.51.37-1.3.7-2.37.23-.78.46-1.48.68-2.04.16-.33.24-.63.24-.91,0-.32-.19-.67-.74-.67Z" style="fill: #fff;"/>
      <path d="M717.05,1.26c-.43,0-1.24.06-2.41.18-1.14.12-1.98.17-2.48.17-.37,0-1.08-.02-2.12-.07-1.05-.05-2.01-.09-2.9-.14-.9-.05-1.37-.07-1.41-.07-.59,0-.95.36-.95.95,0,.26.1.86.99.95,1.04.11,1.5.27,1.69.38.08.05.33.19.33.77,0,.79-.6,2.65-1.79,5.53l-8.72,18.87-9.29-20c-1.47-2.94-1.78-4.05-1.78-4.47,0-.3.11-.49.35-.62.22-.12.73-.29,1.98-.46.77-.17.88-.66.88-.94,0-.36-.18-.95-1.37-.95-.06,0-.46.01-3.22.11-2.05.07-3.88.1-5.44.1-.8,0-1.89-.05-3.23-.14-1.38-.09-2.36-.14-2.92-.14-.98,0-1.09.66-1.09.95,0,.5.41.84,1.25,1.02,1.18.18,2.17.7,2.95,1.57.82.91,2.16,3.21,4,6.84l10.06,21.32c1.8,3.74,3.09,6.54,3.85,8.32.24.49.55.74.92.74.41,0,.76-.3,1.06-.88.23-.46.71-1.54,1.48-3.3.74-1.71,1.3-2.97,1.67-3.76l11.04-23.42c1.33-2.98,2.47-4.96,3.39-5.88.9-.9,2-1.45,3.29-1.62.9-.16,1.03-.71,1.03-1.02,0-.27-.11-.88-1.09-.88Z" style="fill: #fff;"/>
      <path d="M839.77,1.26c-.43,0-1.24.06-2.41.18-1.14.12-1.98.17-2.48.17-.37,0-1.08-.02-2.12-.07-1.05-.05-2.01-.09-2.9-.14-.9-.05-1.37-.07-1.41-.07-.59,0-.95.36-.95.95,0,.26.1.86.99.95,1.04.11,1.5.27,1.69.38.08.05.33.19.33.77,0,.79-.6,2.65-1.79,5.53l-8.72,18.87-9.29-20c-1.47-2.94-1.78-4.05-1.78-4.47,0-.3.11-.49.35-.62.22-.12.73-.29,1.98-.46.77-.17.88-.66.88-.94,0-.36-.18-.95-1.37-.95-.06,0-.46.01-3.22.11-2.05.07-3.88.1-5.44.1-.8,0-1.89-.05-3.23-.14-1.38-.09-2.36-.14-2.92-.14-.98,0-1.09.66-1.09.95,0,.5.41.84,1.25,1.02,1.18.18,2.17.7,2.95,1.57.82.91,2.16,3.21,4,6.84l10.06,21.32c1.8,3.74,3.09,6.54,3.85,8.32.24.49.55.74.92.74.41,0,.76-.3,1.06-.88.23-.46.71-1.54,1.48-3.3.74-1.71,1.3-2.97,1.67-3.76l11.04-23.42c1.33-2.98,2.47-4.96,3.39-5.88.9-.9,2-1.45,3.29-1.62.9-.16,1.03-.71,1.03-1.02,0-.27-.11-.88-1.09-.88Z" style="fill: #fff;"/>
      <path d="M877.37,34.8c-.31,0-.61.24-.96.77-.61.88-1.34,1.48-2.16,1.81-.84.33-2.36.5-4.49.5-3.3,0-5.1-.73-5.34-2.17-.28-1.84-.42-4.1-.42-6.73l-.07-6.87,5.54.13c2.59.06,3.6.35,4,.58.52.31.87,1.24.99,2.66,0,.36.21.74.81.74.46,0,.74-.28.74-.74,0-.19-.01-.78-.04-1.79-.02-1-.04-1.75-.04-2.26,0-.55.02-1.2.07-1.94.05-.73.1-1.37.17-1.9.11-.83.11-.88.11-.91,0-.6-.38-.81-.74-.81-.26,0-.62.13-.87.8l-.21.83c-.2.69-.59,1.12-1.19,1.32-.66.22-2.06.33-4.16.33h-5.2v-7.02c0-3.6.04-6.13.12-7.53,1.45-.12,2.99-.18,4.59-.18,3.91,0,6.11.88,6.54,2.65.19.56.48.85.86.85.22,0,.74-.1.74-1.02v-2.8c0-.23.02-.7.07-1.41.05-.73.07-1.13.07-1.17,0-.24-.16-.53-.6-.53-.08,0-.17.02-.28.05-.01,0-.09.03-.42.05-.26.03-.58.06-.94.11-2.76.23-7.29.35-13.46.35h-4.65c-.76,0-1.48-.01-2.16-.04-.68-.02-1.23-.04-1.65-.04h-.63c-.92,0-1.02.57-1.02.81,0,.54.33.89.91.95,1.05.13,1.78.37,2.17.69.26.22.63.78.87,2.15.21,1.16.31,3.13.31,5.85v19.14c-.06,5.39-.56,7.08-.98,7.56-.15.2-.71.58-2.64.92-.86.09-.99.59-.99.88,0,.55.33.88.88.88.05,0,.64-.01,1.79-.04,1.14-.02,2.44-.05,3.91-.07,1.47-.02,2.62-.04,3.45-.04,2.74,0,5.51.02,8.24.07h.44c2.52.05,3.85.09,3.94.07l2.33.14c.19,0,.54-.08.73-.66.14-.51.37-1.3.7-2.37.23-.78.46-1.48.68-2.04.16-.33.24-.63.24-.91,0-.32-.19-.67-.74-.67Z" style="fill: #fff;"/>
      <path d="M937.26,1.26c-.2,0-1,.05-2.47.14-1.41.09-2.49.14-3.19.14-.41,0-1.46-.03-3.2-.1s-2.73-.11-3.02-.11c-.88,0-.95.62-.95.81,0,.44.36.76,1.09.94,1.63.35,2.69,1.12,3.23,2.33.56,1.26.85,3.49.85,6.65l-.07,15.99c-1.56-1.39-4.45-3.91-8.42-7.35-4.61-4.01-8.94-7.79-13-11.35-4.04-3.55-7.28-6.45-9.63-8.62-.49-.49-.88-.72-1.21-.72-1.05,0-1.16.62-1.16.88v8.88c0,1.61-.19,8.59-.56,20.74-.14,3.95-.41,6.4-.81,7.29-.38.84-1.42,1.53-3.09,2.06-.56.19-.85.48-.85.86,0,.17.07.74.95.74.19,0,1-.04,2.46-.11,1.41-.07,2.49-.1,3.2-.1.46,0,1.47.02,3.03.07,1.57.05,2.49.07,2.77.07.88,0,.95-.62.95-.81,0-.29-.15-.8-1.13-.88-1.53-.17-2.44-.69-2.7-1.56-.29-.96-.44-3.51-.44-7.56V13.88c11.39,9.77,21.39,18.64,29.72,26.37.56.51,1.05.98,1.49,1.42l.87.87c.13.13.33.3.58.3.17,0,.74-.07.74-.95l-.07-8.73c0-2.37.09-9.47.28-21.1.09-4.04.33-6.57.71-7.51.35-.86,1.38-1.43,3.06-1.69.83-.09.92-.64.92-.88,0-.17-.07-.74-.95-.74Z" style="fill: #fff;"/>
      <path d="M977.51,34.8c-.31,0-.61.24-.96.77-.61.88-1.34,1.48-2.16,1.81-.84.33-2.36.5-4.49.5-3.3,0-5.1-.73-5.34-2.17-.28-1.84-.42-4.1-.42-6.73l-.07-6.87,5.54.13c2.59.06,3.6.35,4,.58.52.31.87,1.24.99,2.66,0,.36.21.74.81.74.46,0,.74-.28.74-.74,0-.19-.01-.78-.04-1.79-.02-1-.04-1.75-.04-2.26,0-.55.02-1.2.07-1.94.05-.73.1-1.37.17-1.9.11-.83.11-.88.11-.91,0-.6-.38-.81-.74-.81-.26,0-.62.13-.87.8l-.21.83c-.2.69-.59,1.12-1.19,1.32-.66.22-2.06.33-4.16.33h-5.2v-7.02c0-3.6.04-6.13.12-7.53,1.45-.12,2.99-.18,4.59-.18,3.91,0,6.11.88,6.54,2.65.19.56.48.85.86.85.22,0,.74-.1.74-1.02v-2.8c0-.23.02-.7.07-1.41.05-.73.07-1.13.07-1.17,0-.24-.16-.53-.6-.53-.08,0-.17.02-.28.05-.01,0-.09.03-.42.05-.26.03-.58.06-.94.11-2.76.23-7.29.35-13.46.35h-4.65c-.76,0-1.48-.01-2.16-.04-.68-.02-1.23-.04-1.65-.04h-.63c-.92,0-1.02.57-1.02.81,0,.54.33.89.91.95,1.05.13,1.78.37,2.17.69.26.22.63.78.87,2.15.21,1.16.31,3.13.31,5.85v19.14c-.06,5.39-.56,7.08-.98,7.56-.15.2-.71.58-2.64.92-.86.09-.99.59-.99.88,0,.55.33.88.88.88.05,0,.64-.01,1.79-.04,1.14-.02,2.44-.05,3.91-.07,1.47-.02,2.62-.04,3.45-.04,2.74,0,5.51.02,8.24.07h.44c2.52.05,3.82.09,3.94.07l2.33.14c.19,0,.54-.08.73-.66.14-.51.37-1.3.7-2.37.23-.78.46-1.48.68-2.04.16-.33.24-.63.24-.91,0-.32-.19-.67-.74-.67Z" style="fill: #fff;"/>
      <path d="M1028.74,31.66c-.39,0-.68.29-.87.88-.95,4.2-4.53,6.25-10.94,6.25-4.17,0-7.85-1.8-10.94-5.34-3.1-3.56-4.67-8.3-4.67-14.11,0-4.89,1.06-8.73,3.15-11.4,2.07-2.65,5.3-4,9.6-4,2.69,0,5.47.65,8.25,1.93,2.74,1.26,4.45,2.84,5.07,4.69.23.77.64.93.94.93.24,0,.81-.1.81-1.02,0-2.59.05-4.37.14-5.28.14-1.28.21-2.05.21-2.34,0-.17-.06-.74-.88-.74-.24,0-.5.16-.83.52-.2.21-.4.32-.64.32-.11,0-.37-.03-.98-.17-.51-.12-1.2-.28-2.06-.49-.87-.21-1.71-.39-2.5-.53-2.99-.51-5.36-.77-7.04-.77-6.9,0-12.44,1.81-16.46,5.39-4.04,3.59-6.08,8.51-6.08,14.64,0,3.76.64,7.07,1.92,9.85,1.28,2.79,3.07,4.99,5.32,6.53,2.23,1.53,4.69,2.67,7.29,3.4,2.6.73,5.49,1.09,8.58,1.09,3.27,0,6.26-.28,8.87-.84,1.82-.38,2.94-.69,3.45-.94.38-.22.64-.45.79-.72.08-.15.23-.49.49-1.66.57-2.7.85-4.44.85-5.31,0-.36-.21-.74-.81-.74Z" style="fill: #fff;"/>
      <path d="M1059.89,39.49c-1.77-.3-2.84-.98-3.17-2.02-.36-1.13-.57-4.06-.61-8.71l-.07-16.64c-.05-2.95.02-5,.21-6.09.17-1.04.47-1.77.88-2.16.41-.39,1.27-.68,2.57-.86.77-.17.88-.66.88-.94,0-.24-.11-.81-1.09-.81-.52,0-2.07.05-4.62.14-2.48.09-4.12.14-4.74.14-.52,0-1.65-.05-3.27-.14-1.7-.09-2.62-.14-2.81-.14-.98,0-1.09.57-1.09.81,0,.28.11.77.91.95,1.68.22,2.71.79,3.06,1.71.38,1.01.57,3.64.57,7.82v13.56c0,4.3-.12,7.37-.35,9.15-.28,2.14-.68,2.97-.97,3.28-.42.47-1.27.88-2.52,1.24-.56.19-.85.48-.85.86,0,.19.07.81.95.81.32,0,1.53-.04,3.93-.14,2.27-.09,3.53-.14,3.76-.14.84,0,2.2.02,4.08.07,1.94.05,3.44.07,4.58.07.88,0,.95-.62.95-.81,0-.49-.39-.83-1.18-1.02Z" style="fill: #fff;"/>
      <path d="M1114.79,39.63c-1.36-.26-2.49-.99-3.37-2.15-.91-1.2-2.14-3.62-3.66-7.17l-9.43-22.08-2.67-6.18c-.39-.67-.8-1-1.26-1-.31,0-.62.25-1.06.88-1.8,3.82-2.97,6.26-3.49,7.26l-10.76,21.24c-1.85,3.6-3.26,6.03-4.19,7.22-.9,1.14-1.95,1.8-3.13,1.98-.83.17-.96.66-.96.94,0,.51.33.81.88.81.24,0,1.08-.05,2.57-.14,1.49-.09,2.54-.14,3.23-.14.54,0,1.63.05,3.34.14,1.7.09,2.66.14,2.95.14.59,0,.95-.33.95-.88,0-.29-.14-.8-1.04-.88-1.74-.26-2.59-.97-2.59-2.2,0-.93.37-2.17,1.09-3.71l2.99-6.38h.01l1.59-3.31h-.03s5.19-10.76,5.19-10.76l4.3,10.63-6.49.09-1.4,3.36,9.26.05,2.71,6.78c.64,1.68.96,2.89.96,3.59,0,.93-.9,1.56-2.64,1.85-1.05.08-1.21.63-1.21.95,0,.55.33.88.88.88.51,0,1.62-.04,3.3-.11,1.62-.07,2.78-.1,3.34-.1,1.26,0,2.72.02,4.32.07,1.63.05,3.01.09,4.15.14,1.15.05,1.77.07,1.86.07.51,0,.81-.33.81-.88,0-.5-.44-.84-1.31-1.01Z" style="fill: #fff;"/>
      <path d="M762.13,39.63c-1.36-.26-2.49-.99-3.37-2.15-.91-1.2-2.14-3.62-3.66-7.17l-9.43-22.08-2.67-6.18c-.39-.67-.8-1-1.26-1-.31,0-.62.25-1.06.88-1.8,3.82-2.97,6.26-3.49,7.26l-10.76,21.24c-1.85,3.6-3.26,6.03-4.19,7.22-.9,1.14-1.95,1.8-3.13,1.98-.83.17-.96.66-.96.94,0,.51.33.81.88.81.24,0,1.08-.05,2.57-.14,1.49-.09,2.54-.14,3.23-.14.54,0,1.63.05,3.34.14,1.7.09,2.66.14,2.95.14.59,0,.95-.33.95-.88,0-.29-.14-.8-1.04-.88-1.74-.26-2.59-.97-2.59-2.2,0-.93.37-2.17,1.09-3.71l2.99-6.38h.01l1.59-3.31h-.03s5.19-10.76,5.19-10.76l4.3,10.63-6.49.09-1.4,3.36,9.26.05,2.71,6.78c.64,1.68.96,2.89.96,3.59,0,.93-.9,1.56-2.64,1.85-1.05.08-1.21.63-1.21.95,0,.55.33.88.88.88.51,0,1.62-.04,3.3-.11,1.62-.07,2.78-.1,3.34-.1,1.26,0,2.72.02,4.32.07,1.63.05,3.01.09,4.15.14,1.15.05,1.77.07,1.86.07.51,0,.81-.33.81-.88,0-.5-.44-.84-1.31-1.01Z" style="fill: #fff;"/>
      <path d="M362.27,39.63c-1.36-.26-2.49-.99-3.37-2.15-.91-1.2-2.14-3.62-3.66-7.17l-9.43-22.08-2.67-6.18c-.39-.67-.8-1-1.26-1-.31,0-.62.25-1.06.88-1.8,3.82-2.97,6.26-3.49,7.26l-10.76,21.24c-1.85,3.6-3.26,6.03-4.19,7.22-.9,1.14-1.95,1.8-3.13,1.98-.83.17-.96.66-.96.94,0,.51.33.81.88.81.24,0,1.08-.05,2.57-.14,1.49-.09,2.54-.14,3.23-.14.54,0,1.63.05,3.34.14,1.7.09,2.66.14,2.95.14.59,0,.95-.33.95-.88,0-.29-.14-.8-1.04-.88-1.74-.26-2.59-.97-2.59-2.2,0-.93.37-2.17,1.09-3.71l2.99-6.38h.01l1.59-3.31h-.03s5.19-10.76,5.19-10.76l4.3,10.63-6.49.09-1.4,3.36,9.26.05,2.71,6.78c.64,1.68.96,2.89.96,3.59,0,.93-.9,1.56-2.64,1.85-1.05.08-1.21.63-1.21.95,0,.55.33.88.88.88.51,0,1.62-.04,3.3-.11,1.62-.07,2.78-.1,3.34-.1,1.26,0,2.72.02,4.32.07,1.63.05,3.01.09,4.15.14,1.15.05,1.77.07,1.86.07.51,0,.81-.33.81-.88,0-.5-.44-.84-1.31-1.01Z" style="fill: #fff;"/>
      <path d="M224.08,39.63c-1.36-.26-2.49-.99-3.37-2.15-.91-1.2-2.14-3.62-3.66-7.17l-9.43-22.08-2.67-6.18c-.39-.67-.8-1-1.26-1-.31,0-.62.25-1.06.88-1.8,3.82-2.97,6.26-3.49,7.26l-10.76,21.24c-1.85,3.6-3.26,6.03-4.19,7.22-.9,1.14-1.95,1.8-3.13,1.98-.83.17-.96.66-.96.94,0,.51.33.81.88.81.24,0,1.08-.05,2.57-.14,1.49-.09,2.54-.14,3.23-.14.54,0,1.63.05,3.34.14,1.7.09,2.66.14,2.95.14.59,0,.95-.33.95-.88,0-.29-.14-.8-1.04-.88-1.74-.26-2.59-.97-2.59-2.2,0-.93.37-2.17,1.09-3.71l2.99-6.38h.01l1.59-3.31h-.03s5.19-10.76,5.19-10.76l4.3,10.63-6.49.09-1.4,3.36,9.26.05,2.71,6.78c.64,1.68.96,2.89.96,3.59,0,.93-.9,1.56-2.64,1.85-1.05.08-1.21.63-1.21.95,0,.55.33.88.88.88.51,0,1.62-.04,3.3-.11,1.62-.07,2.78-.1,3.34-.1,1.26,0,2.72.02,4.32.07,1.63.05,3.01.09,4.15.14,1.15.05,1.77.07,1.86.07.51,0,.81-.33.81-.88,0-.5-.44-.84-1.31-1.01Z" style="fill: #fff;"/>
    </g>
  </g>
</svg>