<?xml version="1.0" encoding="UTF-8"?>
<svg id="uuid-b8a98b64-b99b-4df2-8f9f-02c495ff6dff" data-name="Capa 2" xmlns="http://www.w3.org/2000/svg" viewBox="0 0 183.62 31.51">
  <g id="uuid-d0cbb447-846f-42f5-8dc7-96c1dac8f704" data-name="Capa 1">
    <g>
      <path d="M9.1,9.95c-.09,0-.17.08-.29.3-.18.43-.43.74-.76.9-.34.16-.96.25-1.86.25-.84,0-1.38-.01-1.6-.04-.28-.03-.31-.16-.33-.21-.14-.52-.21-1.74-.21-3.64l-.02-3.32c-.01-1.14.02-1.95.12-2.43.09-.45.21-.75.37-.87.16-.12.49-.21.98-.25.24-.05.27-.19.27-.27,0-.09-.04-.23-.34-.23,0,0-.15,0-.41.01h-.45c-.55.03-1.2.03-1.94.03h-1.36c-.13,0-.24,0-.34-.01-.1,0-.19-.01-.25-.01h-.23C.17.17.13.32.13.4c0,.07.03.24.28.27.42.05.6.13.68.2.07.06.18.21.24.63.06.35.08.99.08,1.9v4.95c0,.78,0,1.37-.02,1.74-.01.37-.04.71-.06,1.02-.03.35-.12.49-.18.55-.11.09-.21.16-.32.21-.1.05-.29.08-.55.11-.18.02-.28.13-.28.29,0,.05.02.23.29.23,0,0,.08,0,.21,0l.53-.02c.48-.01,1-.03,1.57-.04.57-.01.96-.02,1.17-.02,1.26,0,2.71.03,4.3.09l.41.02c.08,0,.19-.04.27-.24v-.03s.02-.07.05-.15l.5-1.64c.07-.27.07-.29.07-.3,0-.05-.02-.21-.27-.21Z" style="fill: #fff;"/>
      <path d="M25.52,11.94c-.42-.08-.77-.3-1.04-.66-.28-.37-.66-1.11-1.13-2.21l-2.91-6.81-.82-1.91c-.12-.21-.25-.31-.39-.31-.1,0-.19.08-.33.27-.55,1.18-.92,1.93-1.08,2.24l-3.32,6.55c-.57,1.11-1,1.86-1.29,2.22-.28.35-.6.56-.97.61-.26.05-.29.2-.29.29,0,.16.1.25.27.25.07,0,.33-.01.79-.04.46-.03.78-.04,1-.04.17,0,.5.01,1.03.04.52.03.82.04.91.04.18,0,.29-.1.29-.27,0-.09-.04-.25-.32-.27-.54-.08-.8-.3-.8-.68,0-.29.11-.67.34-1.14l.92-1.97,3.83.02.84,2.09c.2.52.3.89.3,1.11,0,.29-.28.48-.81.57-.32.02-.37.19-.37.29,0,.17.1.27.27.27.16,0,.5-.01,1.02-.03.5-.02.86-.03,1.03-.03.39,0,.84,0,1.33.02.5.01.93.03,1.28.04.35.01.55.02.57.02.16,0,.25-.1.25-.27,0-.15-.14-.26-.4-.31ZM19.79,7.09l-2.93.04,1.6-3.32,1.33,3.28Z" style="fill: #fff;"/>
      <path d="M52.92,11.96c-.45-.08-.75-.27-.93-.57-.19-.31-.37-1.05-.56-2.19l-1.08-6.59c-.13-.78-.24-1.59-.32-2.4,0-.09-.06-.21-.34-.21-.14,0-.23.15-.26.2l-4.7,8.64c-2.2-3.44-3.91-6.31-5.07-8.53-.13-.26-.31-.31-.43-.31-.18,0-.29.1-.29.26-.07.83-.18,1.74-.32,2.71l-.93,6.27c-.18,1.27-.35,2.05-.49,2.3-.13.24-.47.38-1.01.44-.18.02-.28.13-.28.29,0,.05.02.23.29.23.06,0,.31-.01.77-.03.44-.02.79-.03,1.04-.03.2,0,.64.01,1.26.04.65.03.99.04,1.05.04.17,0,.27-.09.27-.25,0-.07-.03-.24-.3-.27-.86-.12-1.27-.54-1.27-1.28,0-.45.04-1.04.13-1.75l.5-3.69c1.7,2.82,3.06,5.23,4.03,7.14.11.21.19.29.28.29.1,0,.19-.08.3-.27l3.99-7.34.65,4.72c.09.63.13,1.12.13,1.47,0,.17-.06.3-.19.4-.14.11-.4.2-.78.28-.3.05-.36.18-.36.29,0,.17.11.27.29.27.2,0,.6-.01,1.19-.03.6-.02,1.03-.03,1.31-.03.32,0,.79,0,1.38.02.6.01.98.02,1.12.02.3,0,.34-.17.34-.25,0-.15-.13-.26-.38-.31Z" style="fill: #fff;"/>
      <path d="M85.08,6.48c-.06,0-.36.01-.93.03-.56.02-1.12.03-1.66.03-.2,0-.57,0-1.1-.02-.53-.01-.84-.02-.93-.02-.4,0-.47.2-.47.31,0,.25.17.27.23.27h.09c.57,0,.92.13,1.03.37.12.27.19.96.19,2.05,0,1.01-.04,1.66-.13,1.95-.45.17-1.02.26-1.69.26-1.2,0-2.25-.54-3.12-1.61-.88-1.08-1.32-2.57-1.32-4.43,0-1.52.33-2.72.97-3.57.64-.84,1.6-1.26,2.85-1.26.97,0,1.92.19,2.8.57.88.38,1.5.93,1.85,1.64.13.2.22.28.32.28.05,0,.23-.02.23-.29,0-.8.01-1.41.04-1.81,0-.11.01-.24.03-.38.03-.21.03-.26.03-.28,0-.11-.07-.23-.25-.23-.06,0-.12.04-.22.12-.05.05-.1.07-.15.07-.24,0-.79-.07-1.64-.21-1.21-.2-2.18-.3-2.9-.3-2.11,0-3.8.56-5.01,1.66-1.22,1.11-1.83,2.62-1.83,4.51,0,2.09.64,3.7,1.91,4.79,1.26,1.09,2.97,1.64,5.06,1.64.59,0,1.26-.06,2-.17.99-.16,1.86-.27,2.58-.32.15-.01.33-.11.33-.49l.02-3.51c0-.27,0-.47.02-.59.01-.1.05-.19.13-.25.08-.07.16-.11.22-.13.07-.02.22-.05.45-.09.1-.01.26-.07.26-.36,0-.05-.02-.23-.29-.23Z" style="fill: #fff;"/>
      <path d="M94.73,11.89c-.55-.09-.88-.3-.98-.62-.11-.35-.18-1.25-.19-2.68l-.02-5.13c-.01-.91,0-1.54.06-1.88.05-.32.15-.55.27-.67.13-.12.39-.21.79-.27.24-.05.27-.2.27-.29,0-.08-.03-.25-.34-.25-.16,0-.64.01-1.43.04-.76.03-1.27.04-1.46.04-.16,0-.51-.01-1.01-.04-.52-.03-.81-.04-.87-.04-.3,0-.34.17-.34.25,0,.09.04.24.28.29.52.07.84.24.94.53.12.31.18,1.12.18,2.41v4.18c0,1.32-.04,2.27-.11,2.82-.09.66-.21.91-.3,1.01-.13.14-.39.27-.78.38-.17.06-.26.15-.26.27,0,.06.02.25.29.25.1,0,.47-.01,1.21-.04.7-.03,1.09-.04,1.16-.04.26,0,.68,0,1.26.02.6.01,1.06.02,1.41.02.27,0,.29-.19.29-.25,0-.15-.12-.26-.36-.31Z" style="fill: #fff;"/>
      <path d="M129.52.04c-.24,0-1.02.03-2.31.09-1.6.07-2.05.09-2.15.09-.31,0-.7,0-1.15-.02h-.29c-.27-.02-.41-.02-.43-.02-.3,0-.34.19-.34.27,0,.09.04.24.28.29.25.04.42.07.52.09.08.01.18.06.28.13s.17.15.2.21c.02.05.06.17.1.45.03.23.05.47.05.7v4.1c0,2.61-.05,4.18-.16,4.68-.1.46-.41.73-.96.81-.28.03-.3.21-.3.29,0,.18.11.29.29.29.01,0,.09,0,.22,0h.12c.22-.01.47-.02.78-.04.29-.01.56-.02.79-.02.18,0,.7.02,1.57.06.86.04,1.55.06,2.03.06,2.43,0,4.32-.63,5.64-1.88,1.31-1.25,1.98-2.87,1.98-4.81,0-1.69-.58-3.09-1.72-4.18-1.14-1.08-2.84-1.63-5.03-1.63ZM132.16,10.28c-.74.88-1.87,1.33-3.37,1.33-.81,0-1.34-.17-1.57-.5-.14-.36-.21-1.18-.21-2.44l-.02-4.39c0-1.41.04-2.45.12-3.08.67-.11,1.21-.16,1.59-.16,1.48,0,2.63.49,3.4,1.46.78.98,1.17,2.28,1.17,3.89,0,1.69-.38,3-1.12,3.89Z" style="fill: #fff;"/>
      <path d="M148.74,10.45c-.1,0-.19.07-.3.24-.19.27-.41.46-.67.56-.26.1-.73.15-1.39.15-1.02,0-1.57-.23-1.65-.67-.08-.57-.13-1.26-.13-2.08l-.02-2.12,1.71.04c.8.02,1.11.11,1.23.18.16.1.27.38.31.82,0,.11.07.23.25.23.14,0,.23-.09.23-.23,0-.06,0-.24-.01-.55,0-.31-.01-.54-.01-.7,0-.17,0-.37.02-.6.01-.23.03-.42.05-.59.03-.25.03-.27.03-.28,0-.18-.12-.25-.23-.25-.08,0-.19.04-.27.25l-.06.25c-.06.21-.18.35-.37.41-.2.07-.63.1-1.28.1h-1.6v-2.16c0-1.11.01-1.89.04-2.32.45-.04.92-.06,1.41-.06,1.21,0,1.88.27,2.02.82.06.17.15.26.27.26.07,0,.23-.03.23-.31v-.86c0-.07,0-.22.02-.44.01-.23.02-.35.02-.36,0-.08-.05-.16-.19-.16-.02,0-.05,0-.09.02,0,0-.03,0-.13.02-.08,0-.18.02-.29.03-.85.07-2.25.11-4.15.11h-1.43c-.24,0-.46,0-.66-.01-.21,0-.38-.01-.51-.01h-.19c-.28,0-.31.18-.31.25,0,.17.1.27.28.29.32.04.55.11.67.21.08.07.19.24.27.66.06.36.1.97.1,1.8v5.9c-.02,1.66-.17,2.18-.3,2.33-.05.06-.22.18-.81.29-.27.03-.3.18-.3.27,0,.17.1.27.27.27.01,0,.2,0,.55-.01.35,0,.75-.01,1.21-.02.45,0,.81-.01,1.06-.01.84,0,1.7,0,2.54.02h.14c.78.01,1.18.03,1.22.02l.72.04c.06,0,.17-.03.22-.2.04-.16.11-.4.21-.73.07-.24.14-.46.21-.63.05-.1.08-.19.08-.28,0-.1-.06-.21-.23-.21Z" style="fill: #fff;"/>
      <path d="M14.32,18.69c-.06,0-.31.01-.76.04-.44.03-.77.04-.98.04-.13,0-.45-.01-.99-.03-.54-.02-.84-.03-.93-.03-.27,0-.29.19-.29.25,0,.14.11.23.34.29.5.11.83.34,1,.72.17.39.26,1.08.26,2.05l-.02,4.93c-.48-.43-1.37-1.2-2.59-2.27-1.42-1.23-2.76-2.4-4.01-3.5-1.24-1.09-2.24-1.99-2.97-2.66-.15-.15-.27-.22-.37-.22-.32,0-.36.19-.36.27v2.74c0,.5-.06,2.65-.17,6.39-.04,1.22-.13,1.97-.25,2.25-.12.26-.44.47-.95.64-.17.06-.26.15-.26.27,0,.05.02.23.29.23.06,0,.31-.01.76-.03.44-.02.77-.03.99-.03.14,0,.45,0,.93.02.48.01.77.02.85.02.27,0,.29-.19.29-.25,0-.09-.05-.25-.35-.27-.47-.05-.75-.21-.83-.48-.09-.3-.14-1.08-.14-2.33v-5.15c3.51,3.01,6.59,5.74,9.16,8.13.17.16.32.3.46.44l.27.27s.1.09.18.09c.05,0,.23-.02.23-.29l-.02-2.69c0-.73.03-2.92.09-6.5.03-1.25.1-2.02.22-2.31.11-.27.43-.44.94-.52.26-.03.28-.2.28-.27,0-.05-.02-.23-.29-.23Z" style="fill: #fff;"/>
      <path d="M31.25,18.71s-.12,0-.52.04c-.3.03-.59.04-.86.04-.19,0-.39,0-.61-.01-.45-.01-.82,0-1.12-.02-.15,0-.26-.02-.36-.03h-.15c-.3,0-.34.19-.34.27,0,.11.05.29.35.31.5.05.83.24,1,.56.18.34.26,1.07.25,2.18l-.02,4.24c-.03,2.44-1.2,3.63-3.58,3.63-.61,0-1.14-.1-1.55-.29-.41-.19-.73-.47-.94-.84-.22-.38-.37-.79-.46-1.23-.09-.44-.14-.98-.14-1.59l-.02-3.92c-.01-1.23.06-2.01.23-2.32.15-.29.51-.44,1.05-.44.18,0,.29-.12.29-.31,0-.08-.03-.27-.34-.27-.06,0-.2,0-.44.02-.23.01-.55.03-.97.04-.42.01-.89.02-1.4.02-.14,0-.31,0-.49-.01-.19,0-.36-.01-.52-.02-.16,0-.31-.01-.45-.02-.15,0-.26-.01-.33,0l-.15-.02c-.3,0-.34.19-.34.27s.03.24.25.29c.42.08.59.18.66.24.07.06.16.22.23.62.06.34.08.96.08,1.86v4.22c0,1.77.45,3.05,1.33,3.78.92.79,2.28,1.19,4.05,1.19s3.13-.49,4.16-1.45c.73-.73,1.11-1.93,1.11-3.56v-4.18c0-1.2.06-1.95.17-2.23.1-.25.41-.42.92-.5.26-.05.3-.22.3-.31,0-.08-.03-.25-.34-.25Z" style="fill: #fff;"/>
      <path d="M43.53,29.03c-.1,0-.19.07-.3.24-.19.27-.41.46-.67.56-.26.1-.73.15-1.39.15-1.02,0-1.57-.23-1.65-.67-.08-.57-.13-1.26-.13-2.08l-.02-2.12,1.71.04c.8.02,1.11.11,1.23.18.16.1.27.38.31.82,0,.11.07.23.25.23.14,0,.23-.09.23-.23,0-.06,0-.24-.01-.55,0-.31-.01-.54-.01-.7,0-.17,0-.37.02-.6.01-.23.03-.42.05-.59.03-.25.03-.27.03-.28,0-.18-.12-.25-.23-.25-.08,0-.19.04-.27.25l-.06.25c-.06.21-.18.35-.37.41-.2.07-.63.1-1.28.1h-1.6v-2.16c0-1.11.01-1.89.04-2.32.45-.04.92-.06,1.41-.06,1.21,0,1.88.27,2.02.82.06.17.15.26.27.26.07,0,.23-.03.23-.31v-.86c0-.07,0-.22.02-.44.01-.23.02-.35.02-.36,0-.08-.05-.16-.19-.16-.02,0-.05,0-.09.02,0,0-.03,0-.13.02-.08,0-.18.02-.29.03-.85.07-2.25.11-4.15.11h-1.43c-.24,0-.46,0-.66-.01-.21,0-.38-.01-.51-.01h-.19c-.28,0-.31.18-.31.25,0,.17.1.27.28.29.32.04.55.11.67.21.08.07.19.24.27.66.06.36.1.97.1,1.8v5.9c-.02,1.66-.17,2.18-.3,2.33-.05.06-.22.18-.81.29-.27.03-.3.18-.3.27,0,.17.1.27.27.27.01,0,.2,0,.55-.01.35,0,.75-.01,1.21-.02.45,0,.81-.01,1.06-.01.84,0,1.7,0,2.54.02h.14c.78.01,1.18.03,1.22.02l.72.04c.06,0,.17-.03.22-.2.04-.16.11-.4.21-.73.07-.24.14-.46.21-.63.05-.1.08-.19.08-.28,0-.1-.06-.21-.23-.21Z" style="fill: #fff;"/>
      <path d="M60.61,18.69c-.13,0-.38.02-.74.05-.35.04-.61.05-.77.05-.11,0-.33,0-.65-.02-.32-.01-.62-.03-.89-.04-.28-.01-.42-.02-.44-.02-.18,0-.29.11-.29.29,0,.08.03.27.3.29.32.03.46.08.52.12.02.01.1.06.1.24,0,.24-.19.82-.55,1.7l-2.69,5.82-2.86-6.16c-.45-.91-.55-1.25-.55-1.38,0-.09.03-.15.11-.19.07-.04.22-.09.61-.14.24-.05.27-.2.27-.29,0-.11-.05-.29-.42-.29-.02,0-.14,0-.99.03-.63.02-1.2.03-1.68.03-.25,0-.58-.01-.99-.04-.42-.03-.73-.04-.9-.04-.3,0-.34.2-.34.29,0,.15.13.26.39.31.36.05.67.22.91.49.25.28.67.99,1.23,2.11l3.1,6.57c.56,1.15.95,2.01,1.19,2.56.08.15.17.23.28.23.13,0,.24-.09.33-.27.07-.14.22-.47.45-1.02.23-.53.4-.92.52-1.16l3.4-7.22c.41-.92.76-1.53,1.05-1.81.28-.28.62-.45,1.01-.5.28-.05.32-.22.32-.31,0-.08-.03-.27-.34-.27Z" style="fill: #fff;"/>
      <path d="M98.44,18.69c-.13,0-.38.02-.74.05-.35.04-.61.05-.77.05-.11,0-.33,0-.65-.02-.32-.01-.62-.03-.89-.04-.28-.01-.42-.02-.44-.02-.18,0-.29.11-.29.29,0,.08.03.27.3.29.32.03.46.08.52.12.02.01.1.06.1.24,0,.24-.19.82-.55,1.7l-2.69,5.82-2.86-6.16c-.45-.91-.55-1.25-.55-1.38,0-.09.03-.15.11-.19.07-.04.22-.09.61-.14.24-.05.27-.2.27-.29,0-.11-.05-.29-.42-.29-.02,0-.14,0-.99.03-.63.02-1.2.03-1.68.03-.25,0-.58-.01-.99-.04-.42-.03-.73-.04-.9-.04-.3,0-.34.2-.34.29,0,.15.13.26.39.31.36.05.67.22.91.49.25.28.67.99,1.23,2.11l3.1,6.57c.56,1.15.95,2.01,1.19,2.56.08.15.17.23.28.23.13,0,.24-.09.33-.27.07-.14.22-.47.45-1.02.23-.53.4-.92.52-1.16l3.4-7.22c.41-.92.76-1.53,1.05-1.81.28-.28.62-.45,1.01-.5.28-.05.32-.22.32-.31,0-.08-.03-.27-.34-.27Z" style="fill: #fff;"/>
      <path d="M110.03,29.03c-.1,0-.19.07-.3.24-.19.27-.41.46-.67.56-.26.1-.73.15-1.39.15-1.02,0-1.57-.23-1.65-.67-.08-.57-.13-1.26-.13-2.08l-.02-2.12,1.71.04c.8.02,1.11.11,1.23.18.16.1.27.38.31.82,0,.11.07.23.25.23.14,0,.23-.09.23-.23,0-.06,0-.24-.01-.55,0-.31-.01-.54-.01-.7,0-.17,0-.37.02-.6.01-.23.03-.42.05-.59.03-.25.03-.27.03-.28,0-.18-.12-.25-.23-.25-.08,0-.19.04-.27.25l-.06.25c-.06.21-.18.35-.37.41-.2.07-.63.1-1.28.1h-1.6v-2.16c0-1.11.01-1.89.04-2.32.45-.04.92-.06,1.41-.06,1.21,0,1.88.27,2.02.82.06.17.15.26.27.26.07,0,.23-.03.23-.31v-.86c0-.07,0-.22.02-.44.01-.23.02-.35.02-.36,0-.08-.05-.16-.19-.16-.02,0-.05,0-.09.02,0,0-.03,0-.13.02-.08,0-.18.02-.29.03-.85.07-2.25.11-4.15.11h-1.43c-.24,0-.46,0-.66-.01-.21,0-.38-.01-.51-.01h-.19c-.28,0-.31.18-.31.25,0,.17.1.27.28.29.32.04.55.11.67.21.08.07.19.24.27.66.06.36.1.97.1,1.8v5.9c-.02,1.66-.17,2.18-.3,2.33-.05.06-.22.18-.81.29-.27.03-.3.18-.3.27,0,.17.1.27.27.27.01,0,.2,0,.55-.01.35,0,.75-.01,1.21-.02.45,0,.81-.01,1.06-.01.84,0,1.7,0,2.54.02h.14c.78.01,1.19.03,1.22.02l.72.04c.06,0,.17-.03.22-.2.04-.16.11-.4.21-.73.07-.24.14-.46.21-.63.05-.1.08-.19.08-.28,0-.1-.06-.21-.23-.21Z" style="fill: #fff;"/>
      <path d="M128.49,18.69c-.06,0-.31.01-.76.04-.44.03-.77.04-.98.04-.13,0-.45-.01-.99-.03-.54-.02-.84-.03-.93-.03-.27,0-.29.19-.29.25,0,.14.11.23.34.29.5.11.83.34,1,.72.17.39.26,1.08.26,2.05l-.02,4.93c-.48-.43-1.37-1.2-2.59-2.27-1.42-1.23-2.76-2.4-4.01-3.5-1.24-1.09-2.24-1.99-2.97-2.66-.15-.15-.27-.22-.37-.22-.32,0-.36.19-.36.27v2.74c0,.5-.06,2.65-.17,6.39-.04,1.22-.13,1.97-.25,2.25-.12.26-.44.47-.95.64-.17.06-.26.15-.26.27,0,.05.02.23.29.23.06,0,.31-.01.76-.03.44-.02.77-.03.99-.03.14,0,.45,0,.93.02.48.01.77.02.85.02.27,0,.29-.19.29-.25,0-.09-.05-.25-.35-.27-.47-.05-.75-.21-.83-.48-.09-.3-.14-1.08-.14-2.33v-5.15c3.51,3.01,6.59,5.74,9.16,8.13.17.16.32.3.46.44l.27.27s.1.09.18.09c.05,0,.23-.02.23-.29l-.02-2.69c0-.73.03-2.92.09-6.5.03-1.25.1-2.02.22-2.31.11-.27.43-.44.94-.52.26-.03.28-.2.28-.27,0-.05-.02-.23-.29-.23Z" style="fill: #fff;"/>
      <path d="M140.9,29.03c-.1,0-.19.07-.3.24-.19.27-.41.46-.67.56-.26.1-.73.15-1.39.15-1.02,0-1.57-.23-1.65-.67-.08-.57-.13-1.26-.13-2.08l-.02-2.12,1.71.04c.8.02,1.11.11,1.23.18.16.1.27.38.31.82,0,.11.07.23.25.23.14,0,.23-.09.23-.23,0-.06,0-.24-.01-.55,0-.31-.01-.54-.01-.7,0-.17,0-.37.02-.6.01-.23.03-.42.05-.59.03-.25.03-.27.03-.28,0-.18-.12-.25-.23-.25-.08,0-.19.04-.27.25l-.06.25c-.06.21-.18.35-.37.41-.2.07-.63.1-1.28.1h-1.6v-2.16c0-1.11.01-1.89.04-2.32.45-.04.92-.06,1.41-.06,1.21,0,1.88.27,2.02.82.06.17.15.26.27.26.07,0,.23-.03.23-.31v-.86c0-.07,0-.22.02-.44.01-.23.02-.35.02-.36,0-.08-.05-.16-.19-.16-.02,0-.05,0-.09.02,0,0-.03,0-.13.02-.08,0-.18.02-.29.03-.85.07-2.25.11-4.15.11h-1.43c-.24,0-.46,0-.66-.01-.21,0-.38-.01-.51-.01h-.19c-.28,0-.31.18-.31.25,0,.17.1.27.28.29.32.04.55.11.67.21.08.07.19.24.27.66.06.36.1.97.1,1.8v5.9c-.02,1.66-.17,2.18-.3,2.33-.05.06-.22.18-.81.29-.27.03-.3.18-.3.27,0,.17.1.27.27.27.01,0,.2,0,.55-.01.35,0,.75-.01,1.21-.02.45,0,.81-.01,1.06-.01.84,0,1.7,0,2.54.02h.14c.78.01,1.18.03,1.22.02l.72.04c.06,0,.17-.03.22-.2.04-.16.11-.4.21-.73.07-.24.14-.46.21-.63.05-.1.08-.19.08-.28,0-.1-.06-.21-.23-.21Z" style="fill: #fff;"/>
      <path d="M156.69,28.06c-.12,0-.21.09-.27.27-.29,1.3-1.4,1.93-3.37,1.93-1.29,0-2.42-.55-3.37-1.65-.96-1.1-1.44-2.56-1.44-4.35,0-1.51.33-2.69.97-3.52.64-.82,1.63-1.23,2.96-1.23.83,0,1.68.2,2.54.59.85.39,1.37.88,1.56,1.45.07.24.2.29.29.29.08,0,.25-.03.25-.31,0-.8.01-1.35.04-1.63.04-.4.07-.63.07-.72,0-.05-.02-.23-.27-.23-.08,0-.15.05-.26.16-.06.07-.12.1-.2.1-.03,0-.11,0-.3-.05-.16-.04-.37-.09-.63-.15-.27-.06-.53-.12-.77-.16-.92-.16-1.65-.24-2.17-.24-2.13,0-3.83.56-5.07,1.66-1.24,1.11-1.88,2.62-1.88,4.51,0,1.16.2,2.18.59,3.04.39.86.95,1.54,1.64,2.01.69.47,1.44.82,2.25,1.05.8.22,1.69.34,2.64.34,1.01,0,1.93-.09,2.73-.26.56-.12.91-.21,1.06-.29.12-.07.2-.14.24-.22.03-.05.07-.15.15-.51.18-.83.26-1.37.26-1.64,0-.11-.07-.23-.25-.23Z" style="fill: #fff;"/>
      <path d="M166.29,30.47c-.55-.09-.88-.3-.98-.62-.11-.35-.18-1.25-.19-2.68l-.02-5.13c-.01-.91,0-1.54.06-1.88.05-.32.15-.55.27-.67.13-.12.39-.21.79-.27.24-.05.27-.2.27-.29,0-.08-.03-.25-.34-.25-.16,0-.64.01-1.43.04-.76.03-1.27.04-1.46.04-.16,0-.51-.01-1.01-.04-.52-.03-.81-.04-.87-.04-.3,0-.34.17-.34.25,0,.09.04.24.28.29.52.07.84.24.94.53.12.31.18,1.12.18,2.41v4.18c0,1.32-.04,2.27-.11,2.82-.09.66-.21.91-.3,1.01-.13.14-.39.27-.78.38-.17.06-.26.15-.26.27,0,.06.02.25.29.25.1,0,.47-.01,1.21-.04.7-.03,1.09-.04,1.16-.04.26,0,.68,0,1.26.02.6.01,1.06.02,1.41.02.27,0,.29-.19.29-.25,0-.15-.12-.26-.36-.31Z" style="fill: #fff;"/>
      <path d="M183.21,30.52c-.42-.08-.77-.3-1.04-.66-.28-.37-.66-1.11-1.13-2.21l-2.91-6.81-.82-1.91c-.12-.21-.25-.31-.39-.31-.1,0-.19.08-.33.27-.55,1.18-.92,1.93-1.08,2.24l-3.32,6.55c-.57,1.11-1,1.86-1.29,2.22-.28.35-.6.56-.97.61-.26.05-.29.2-.29.29,0,.16.1.25.27.25.07,0,.33-.01.79-.04.46-.03.78-.04,1-.04.17,0,.5.01,1.03.04.52.03.82.04.91.04.18,0,.29-.1.29-.27,0-.09-.04-.25-.32-.27-.54-.08-.8-.3-.8-.68,0-.29.11-.67.34-1.14l.92-1.97h0l.49-1.02h0s1.6-3.32,1.6-3.32l1.33,3.28-2,.03-.43,1.04,2.86.02.84,2.09c.2.52.3.89.3,1.11,0,.29-.28.48-.81.57-.32.02-.37.19-.37.29,0,.17.1.27.27.27.16,0,.5-.01,1.02-.03.5-.02.86-.03,1.03-.03.39,0,.84,0,1.33.02.5.01.93.03,1.28.04.35.01.55.02.57.02.16,0,.25-.1.25-.27,0-.15-.14-.26-.4-.31Z" style="fill: #fff;"/>
      <path d="M74.51,30.52c-.42-.08-.77-.3-1.04-.66-.28-.37-.66-1.11-1.13-2.21l-2.91-6.81-.82-1.91c-.12-.21-.25-.31-.39-.31-.1,0-.19.08-.33.27-.55,1.18-.92,1.93-1.08,2.24l-3.32,6.55c-.57,1.11-1,1.86-1.29,2.22-.28.35-.6.56-.97.61-.26.05-.29.2-.29.29,0,.16.1.25.27.25.07,0,.33-.01.79-.04.46-.03.78-.04,1-.04.17,0,.5.01,1.03.04.52.03.82.04.91.04.18,0,.29-.1.29-.27,0-.09-.04-.25-.32-.27-.54-.08-.8-.3-.8-.68,0-.29.11-.67.34-1.14l.92-1.97h0l.49-1.02h0s1.6-3.32,1.6-3.32l1.33,3.28-2,.03-.43,1.04,2.86.02.84,2.09c.2.52.3.89.3,1.11,0,.29-.28.48-.81.57-.32.02-.37.19-.37.29,0,.17.1.27.27.27.16,0,.5-.01,1.02-.03.5-.02.86-.03,1.03-.03.39,0,.84,0,1.33.02.5.01.93.03,1.28.04.35.01.55.02.57.02.16,0,.25-.1.25-.27,0-.15-.14-.26-.4-.31Z" style="fill: #fff;"/>
      <path d="M111.67,11.94c-.42-.08-.77-.3-1.04-.66-.28-.37-.66-1.11-1.13-2.21l-2.91-6.81-.82-1.91c-.12-.21-.25-.31-.39-.31-.1,0-.19.08-.33.27-.55,1.18-.92,1.93-1.08,2.24l-3.32,6.55c-.57,1.11-1,1.86-1.29,2.22-.28.35-.6.56-.97.61-.26.05-.29.2-.29.29,0,.16.1.25.27.25.07,0,.33-.01.79-.04.46-.03.78-.04,1-.04.17,0,.5.01,1.03.04.52.03.82.04.91.04.18,0,.29-.1.29-.27,0-.09-.04-.25-.32-.27-.54-.08-.8-.3-.8-.68,0-.29.11-.67.34-1.14l.92-1.97h0l.49-1.02h0s1.6-3.32,1.6-3.32l1.33,3.28-2,.03-.43,1.04,2.86.02.84,2.09c.2.52.3.89.3,1.11,0,.29-.28.48-.81.57-.32.02-.37.19-.37.29,0,.17.1.27.27.27.16,0,.5-.01,1.02-.03.5-.02.86-.03,1.03-.03.39,0,.84,0,1.33.02.5.01.93.03,1.28.04.35.01.55.02.57.02.16,0,.25-.1.25-.27,0-.15-.14-.26-.4-.31Z" style="fill: #fff;"/>
      <path d="M69.07,11.94c-.42-.08-.77-.3-1.04-.66-.28-.37-.66-1.11-1.13-2.21l-2.91-6.81-.82-1.91c-.12-.21-.25-.31-.39-.31-.1,0-.19.08-.33.27-.55,1.18-.92,1.93-1.08,2.24l-3.32,6.55c-.57,1.11-1,1.86-1.29,2.22-.28.35-.6.56-.97.61-.26.05-.29.2-.29.29,0,.16.1.25.27.25.07,0,.33-.01.79-.04.46-.03.78-.04,1-.04.17,0,.5.01,1.03.04.52.03.82.04.91.04.18,0,.29-.1.29-.27,0-.09-.04-.25-.32-.27-.54-.08-.8-.3-.8-.68,0-.29.11-.67.34-1.14l.92-1.97h0l.49-1.02h0s1.6-3.32,1.6-3.32l1.33,3.28-2,.03-.43,1.04,2.86.02.84,2.09c.2.52.3.89.3,1.11,0,.29-.28.48-.81.57-.32.02-.37.19-.37.29,0,.17.1.27.27.27.16,0,.5-.01,1.02-.03.5-.02.86-.03,1.03-.03.39,0,.84,0,1.33.02.5.01.93.03,1.28.04.35.01.55.02.57.02.16,0,.25-.1.25-.27,0-.15-.14-.26-.4-.31Z" style="fill: #fff;"/>
    </g>
  </g>
</svg>