<?xml version="1.0" encoding="UTF-8"?>
<svg id="Capa_1" data-name="Capa 1" xmlns="http://www.w3.org/2000/svg" viewBox="0 0 176.17 172.6">
  <defs>
    <style>
      .cls-1 {
        fill: #fff;
        opacity: .4;
      }
    </style>
  </defs>
  <circle class="cls-1" cx="86.98" cy="85.46" r="83.22"/>
  <path d="M86.98,53.1h27.81c1.23,0,2.49-.08,3.72,0,.8.05.93.67.93,1.29v18.07c0,4.26-.06,8.53,0,12.79,0,.07,0,.14,0,.21,0,.32.5.32.5,0v-28.16c0-1.09.06-2.21,0-3.3-.1-1.75-2.18-1.4-3.39-1.4h-16.21c-4.37,0-8.75-.06-13.12,0-.08,0-.15,0-.23,0-.32,0-.32.5,0,.5h0Z"/>
  <path d="M81.12,125.1h-27.81c-1.23,0-2.49.08-3.72,0-.8-.05-.93-.67-.93-1.29v-1.87c0-5.4,0-10.8,0-16.2,0-4.26.06-8.53,0-12.79,0-.07,0-.14,0-.21,0-.32-.5-.32-.5,0,0,3.68,0,7.37,0,11.05,0,5.7,0,11.4,0,17.11,0,1.09-.06,2.21,0,3.3.1,1.75,2.18,1.4,3.39,1.4h16.21c4.37,0,8.75.06,13.12,0,.08,0,.15,0,.23,0,.32,0,.32-.5,0-.5h0Z"/>
</svg>