<?xml version="1.0" encoding="UTF-8"?>
<svg id="uuid-54eab473-96ee-4966-b91f-ac35d8007a9c" data-name="Capa_2" xmlns="http://www.w3.org/2000/svg" viewBox="0 0 13.47 13.46">
  <g id="uuid-24c71a06-1ad3-4cdb-b3bf-c69ec2863baf" data-name="uuid-8ed0e6b3-32fe-4be3-9747-e992d21cf703">
    <g>
      <path d="M6.63,13.43c-1.03,0-2.07.05-3.09-.01-1.96-.11-3.39-1.44-3.47-3.38C-.02,7.83-.02,5.6.07,3.39.14,1.57,1.39.2,3.19.1,5.55-.03,7.94-.03,10.3.1c1.75.09,3.01,1.45,3.09,3.22.1,2.24.11,4.5.01,6.75-.08,1.92-1.47,3.24-3.39,3.36-1.12.07-2.25.01-3.38.01h0ZM6.8,1.2h0c-1,0-2-.04-3,0-1.6.08-2.55,1.03-2.59,2.63-.04,1.94-.05,3.88,0,5.82.04,1.58.99,2.56,2.51,2.61,2,.06,4.01.06,6.01,0,1.48-.04,2.47-.96,2.52-2.39.07-2.06.08-4.13,0-6.2-.06-1.54-1.07-2.43-2.64-2.48-.94-.03-1.88,0-2.82,0h.01Z" style="fill: #fff;"/>
      <path d="M6.73,3.26c1.97,0,3.49,1.53,3.48,3.5-.01,1.9-1.57,3.45-3.46,3.46-1.92,0-3.51-1.6-3.49-3.53.02-1.91,1.55-3.43,3.47-3.43ZM6.76,8.98c1.25-.01,2.26-1.05,2.23-2.3-.03-1.21-1.03-2.2-2.24-2.22-1.24-.02-2.27,1.01-2.27,2.27s1.01,2.26,2.27,2.25h.01Z" style="fill: #fff;"/>
      <path d="M11,2.74c0,.44-.35.79-.79.79s-.79-.35-.79-.79.35-.79.79-.79.79.35.79.79Z" style="fill: #fff;"/>
    </g>
  </g>
</svg>