<?xml version="1.0" encoding="UTF-8"?>
<svg id="uuid-a895464d-f1bb-4b8a-b369-438dc3a61ec9" data-name="Capa_2" xmlns="http://www.w3.org/2000/svg" viewBox="0 0 12.72 12.71">
  <g id="uuid-55488405-d9e5-4c39-ba80-e9bd8550d912" data-name="uuid-8ed0e6b3-32fe-4be3-9747-e992d21cf703">
    <g>
      <path d="M12.71,12.7h-2.62v-2.93c0-.71-.02-1.42-.06-2.13-.05-.74-.41-1.24-1.2-1.29-.77-.05-1.36.26-1.54,1.04-.12.51-.12,1.05-.13,1.58-.02,1.21,0,2.43,0,3.7h-2.58V4.26h2.4c.03.31.05.59.06.69.81-.31,1.61-.81,2.45-.89,1.9-.18,2.99.85,3.19,2.78.04.41.04.83.04,1.25v4.62h0Z" style="fill: #fff;"/>
      <path d="M2.81,12.7H.26V4.28h2.55v8.42Z" style="fill: #fff;"/>
      <path d="M3.04,1.53c0,.81-.73,1.53-1.54,1.53s-1.5-.69-1.5-1.54S.68,0,1.51,0C2.33,0,3.04.72,3.04,1.54h0Z" style="fill: #fff;"/>
    </g>
  </g>
</svg>