<?xml version="1.0" encoding="UTF-8"?>
<svg id="uuid-76fd1ba2-aba4-4313-9e93-8fb9ddcec862" data-name="Capa_2" xmlns="http://www.w3.org/2000/svg" viewBox="0 0 10.91 12.45">
  <g id="uuid-0599f952-08f2-4d6c-b639-350fe6c38bad" data-name="uuid-8ed0e6b3-32fe-4be3-9747-e992d21cf703">
    <path d="M5.83,0h1.99c.25,1.8,1.37,2.7,3.09,3v2.37c-1.01-.36-1.93-.68-2.93-1.03,0,1.07,0,2.18,0,3.3,0,.61,0,1.24-.13,1.84-.39,1.94-2.49,3.24-4.62,2.92C1.32,12.11-.16,10.15.01,8.14c.15-1.88,1.95-3.55,3.83-3.56.2,0,.4.06.61.09v1.99c-.36.06-.71.09-1.04.19-.84.25-1.34,1.04-1.24,1.89.09.81.77,1.45,1.6,1.51.99.07,1.74-.4,1.95-1.25.08-.32.1-.66.1-.99,0-2.36,0-4.73.02-7.09V.01h-.01Z" style="fill: #fff;"/>
  </g>
</svg>