<?xml version="1.0" encoding="UTF-8"?>
<svg id="uuid-70fe600a-c4a5-4ff5-abeb-596b9778fd9c" data-name="Capa_2" xmlns="http://www.w3.org/2000/svg" viewBox="0 0 14 9.77">
  <g id="uuid-08bfb08c-2a92-413a-bcc6-9db4b4290b55" data-name="uuid-8ed0e6b3-32fe-4be3-9747-e992d21cf703">
    <path d="M7.07.02C8.62.02,10.18-.01,11.73.02c1.38.03,2.13.65,2.19,2.01.1,1.88.11,3.78.01,5.66-.07,1.44-.8,2.05-2.24,2.06-3.04.03-6.08.03-9.12,0-1.72-.02-2.38-.55-2.49-2.26C-.04,5.68-.01,3.85.11,2.04.2.63.9.06,2.29.02,3.88-.02,5.47.02,7.05.02h.02ZM5.61,6.71c1.3-.68,2.47-1.29,3.78-1.97-1.33-.69-2.51-1.29-3.78-1.95v3.92Z" style="fill: #fff;"/>
  </g>
</svg>