<?xml version="1.0" encoding="UTF-8"?>
<svg id="uuid-a515ea77-b029-434d-9479-a91158f89ecb" data-name="Capa 2" xmlns="http://www.w3.org/2000/svg" viewBox="0 0 13.56 35.36">
  <g id="uuid-c6dcb756-a0cd-4127-b8a6-3b8d34e10226" data-name="Capa 1">
    <path d="M13.55,17.87c.01-.06,0-.13,0-.19,0-.06,0-.13,0-.19,0-.05-.04-.1-.06-.15-.03-.07-.05-.15-.09-.21,0,0,0-.01,0-.02L1.82.43C1.51-.02.88-.14.43.18-.02.49-.14,1.12.18,1.57l11.18,16.11L.18,33.79c-.32.45-.2,1.08.25,1.39.17.12.37.18.57.18.32,0,.63-.15.82-.43l11.57-16.68s0-.01,0-.02c.04-.07.07-.14.09-.21.02-.05.05-.1.06-.15Z" style="fill: #fff;"/>
  </g>
</svg>