<?xml version="1.0" encoding="UTF-8"?>
<svg id="uuid-217c462e-0be4-4d70-90c5-840abcefc2d4" data-name="Capa_2" xmlns="http://www.w3.org/2000/svg" viewBox="0 0 22.42 26.38">
  <g id="uuid-c4abb344-e373-479a-adcb-d18d42399ce1" data-name="Capa_1">
    <g>
      <path d="M16.52,3.74c1.03,0,1.87-.84,1.87-1.87s-.84-1.87-1.87-1.87-1.87.84-1.87,1.87.84,1.87,1.87,1.87" style="fill: #f4f4f4;"/>
      <path d="M15.84,14.75c-.07-.05-.14-.1-.21-.14h0,0s-.05-.03-.07-.04l-1.07-.6-4.41-2.54h0s-.02,0-.02,0l-6.9,11.96-.32.54c-.04.06-.08.13-.12.2h0s0,0,0,0c-.01.02-.02.04-.03.06h0s0,0,0,0c-.08.2-.13.41-.13.65,0,.85.64,1.54,1.43,1.54.47,0,.88-.24,1.15-.62l.4-.68,1.83-3.17,7.53-2.02c.09-.02.18-.04.27-.07l.08-.02h0c1.04-.39,1.78-1.44,1.78-2.69,0-.55-.15-1.06-.4-1.5-.2-.34-.46-.63-.77-.85M11.8,17.71l-2.4.64,1.72-2.98.88.51,2.1,1.21-2.3.62Z" style="fill: #f4f4f4;"/>
      <path d="M3.31,13.51l.23.65.65-.11.17-.03,3.16-.54-1.35-.79,2.59-4.48,3.65-.77h0c.59-.16,1.04-.73,1.04-1.42,0-.8-.6-1.45-1.35-1.45-.12,0-.23.02-.34.05l-4.85,1.03h0s-3.23,5.59-3.23,5.59l-1.49-.87,1.07,2.99.06.16Z" style="fill: #f4f4f4;"/>
      <polygon points="2.03 10.43 0 13.89 3.08 13.37 2.03 10.43" style="fill: #f4f4f4;"/>
      <polygon points="5.48 17.16 7.54 13.66 4.42 14.18 5.48 17.16" style="fill: #f4f4f4;"/>
      <polygon points="4.25 14.21 3.6 14.32 3.43 14.35 3.37 14.19 3.14 13.54 0 14.07 5.31 17.18 4.25 14.21" style="fill: #f4f4f4;"/>
      <path d="M21.06,4.25c-.51,0-.96.28-1.19.69-.04.07-.07.14-.1.22h0s-.13.3-.13.3l-1,2.23s0,0,0,0h-2.94s0,0,0,0l-1.47,2.65s0,0,0,0h6.21s0,0,0,0v-.02s0,0,0,0c0,0,0,0,0,0l1.57-3.51.35-.8s0,0,0,0c.04-.13.06-.26.06-.4,0-.75-.61-1.36-1.37-1.36" style="fill: #f4f4f4;"/>
    </g>
  </g>
</svg>